<?xml version="1.0" encoding="UTF-8"?>
<svg version="1.1" xmlns="http://www.w3.org/2000/svg" width="1408" height="736">
<path d="M0 0 C3.27912195 0.30068073 4.67444302 0.66103774 6.9921875 3.07421875 C7.61351562 3.93660156 8.23484375 4.79898437 8.875 5.6875 C14.77689868 13.82421806 22.37905385 18.71093826 30.859375 23.85546875 C37.1079697 27.76363999 41.51563548 31.85406438 44.3125 38.875 C44.63863281 39.65617187 44.96476563 40.43734375 45.30078125 41.2421875 C47.09386075 48.31433345 45.64136718 54.06672139 43.5 60.8125 C40.67066605 70.50600976 39.23750756 77.77152378 43.5 87.3125 C46.47812358 92.74195643 49.74458109 95.85091962 55 99 C56.16929115 99.78778514 57.33625611 100.5790431 58.5 101.375 C59.325 101.91125 60.15 102.4475 61 103 C60.73828125 104.89453125 60.73828125 104.89453125 60 107 C58.29296875 108.01171875 58.29296875 108.01171875 56.1875 108.6875 C55.15689453 109.03361328 55.15689453 109.03361328 54.10546875 109.38671875 C53.41066406 109.58910156 52.71585938 109.79148437 52 110 C51.43095947 110.17563477 50.86191895 110.35126953 50.27563477 110.53222656 C47.30966756 111.1419029 44.51222448 111.1114192 41.484375 111.09765625 C40.23398437 111.09443359 38.98359375 111.09121094 37.6953125 111.08789062 C35.74238281 111.07532227 35.74238281 111.07532227 33.75 111.0625 C31.77386719 111.05573242 31.77386719 111.05573242 29.7578125 111.04882812 C26.50516259 111.03704316 23.25260416 111.02059011 20 111 C20.97689348 127.2164318 24.27045927 138.75950239 33.9855957 151.88549805 C37.91440062 157.29120514 37.91440062 157.29120514 38.41796875 161.4609375 C38 164 38 164 37 165 C32.06397891 165.72234455 29.22298113 164.43025237 25.265625 161.7265625 C6.97080159 147.78464535 -5.118398 126.86630876 -11.75 105 C-12.00225342 104.16976318 -12.25450684 103.33952637 -12.5144043 102.48413086 C-13.65013538 98.40891011 -14.56858258 95.10484794 -13 91 C-11.34211215 89.65576661 -9.67423683 88.32381517 -8 87 C-2.42768621 79.16565784 -2.27903003 71.36231005 -3 62 C-5.00129611 53.64519154 -10.35842871 49.60112235 -17.0625 44.8125 C-19.29847506 41.56672975 -19.23706719 40.94474504 -18.6875 37.1875 C-15.2779714 22.95223652 -9.63041358 11.04665087 0 0 Z " fill="#97C4F1" transform="translate(569,324)"/>
<path d="M0 0 C0.99 0.99 0.99 0.99 2 2 C1.79296875 4.42578125 1.79296875 4.42578125 1.1875 7.3125 C0.99542969 8.25738281 0.80335938 9.20226562 0.60546875 10.17578125 C0.24148507 11.873589 -0.13561255 13.56877317 -0.53833008 15.2578125 C-1.07812649 18.46404902 -1.05996618 21.44831083 -0.9921875 24.69921875 C-0.97542969 25.99150391 -0.95867187 27.28378906 -0.94140625 28.61523438 C-0.91065311 30.64469769 -0.87531719 32.67371873 -0.82861328 34.70288086 C-0.38769719 54.97758982 -0.38769719 54.97758982 -7.1875 62.375 C-10.74136939 66.06954338 -14.28676886 68.09719216 -19 70 C-19.99 70.42152344 -20.98 70.84304688 -22 71.27734375 C-25.90746623 72.92939749 -29.81656898 74.55973056 -33.79296875 76.0390625 C-36.10096163 76.8009429 -36.10096163 76.8009429 -37.125 78.75 C-37.41375 79.4925 -37.7025 80.235 -38 81 C-38.7734375 82.2684375 -38.7734375 82.2684375 -39.5625 83.5625 C-43.32338413 92.55591858 -41.89902919 102.52561542 -41 112 C-49.40832756 112 -55.44580172 106.46115644 -61.23828125 100.8203125 C-66.02329867 95.59860417 -70.07051227 89.88195195 -74 84 C-88.39166455 92.32171079 -94.95840486 107.37905864 -99.80859375 122.61328125 C-101 126 -101 126 -103 128 C-105.5 128.3125 -105.5 128.3125 -108 128 C-112.87341984 120.68987025 -111.42348096 110.53462908 -110.0625 102.25 C-106.70061033 86.59818346 -99.61550095 71.43607887 -91 58 C-90.3296875 56.92492187 -89.659375 55.84984375 -88.96875 54.7421875 C-84.05953645 47.35948558 -84.05953645 47.35948558 -79.5 45.8125 C-78.345 45.874375 -77.19 45.93625 -76 46 C-67.22975155 46.27842059 -61.07413835 44.46637963 -54 39 C-49.39358304 34.65680687 -47.96493582 29.10360194 -47 23 C-47.08891381 20.72746763 -47.21425467 18.45608325 -47.375 16.1875 C-47.46680132 10.64663462 -47.46680132 10.64663462 -45.5703125 8.01953125 C-34.34753759 -0.21756203 -13.02804272 -5.71962851 0 0 Z " fill="#9461BA" transform="translate(647,233)"/>
<path d="M0 0 C5.41273463 1.70976584 6.84451878 4.23916865 9.51953125 9.0390625 C16.75589193 23.51178386 19.533858 38.13250235 19.33618164 54.14428711 C19.31238411 56.19749876 19.31568214 58.24941733 19.32226562 60.30273438 C19.30264528 69.34500714 18.8798026 78.36059221 16 87 C13.7421875 87.95703125 13.7421875 87.95703125 10.875 88.8125 C4.64643691 90.96139466 0.05163604 93.39238311 -3.27734375 99.24609375 C-6.25439952 105.69814701 -8.00362567 111.86897553 -7 119 C-5.81527101 122.12848774 -4.47746776 125.10658965 -2.99609375 128.10546875 C-1.78327129 131.62978814 -1.93234469 133.44428453 -3 137 C-10.09393512 148.02211882 -21.64033443 159.10575287 -34 164 C-36.640625 164.25390625 -36.640625 164.25390625 -39 164 C-41.55222859 161.44777141 -41.50768791 159.84682909 -42.125 156.3125 C-44.55107262 145.17965915 -50.82923228 135.58276434 -56.87109375 126.05078125 C-59.75622418 120.80962735 -59.75513581 114.8189877 -59 109 C-56.35142759 101.05428278 -52.06416552 95.79014506 -46.05859375 90.12890625 C-41.06270045 84.96237523 -39.77328654 79.62654302 -39.5 72.5625 C-39.8182017 63.15909113 -43.29223138 56.2932599 -49 49 C-48.34 47.68 -47.68 46.36 -47 45 C-32.88371048 45.05347079 -20.52426251 51.00321329 -8 57 C-3.15070998 43.03404475 -1.11953584 31.00884011 -3.50390625 16.2421875 C-4.15601081 11.98040179 -4.41614477 8.30016267 -4 4 C-2 1.4375 -2 1.4375 0 0 Z " fill="#5970C2" transform="translate(845,280)"/>
<path d="M0 0 C1.87109375 0.15625 1.87109375 0.15625 4 1 C12.40676607 11.35943789 13.94279255 24.29200219 16 37 C21.63776559 36.48747586 25.86689747 34.96739407 30.875 32.375 C31.57826416 32.0138208 32.28152832 31.6526416 33.00610352 31.28051758 C42.26222415 26.41151819 48.57212583 20.78025119 54.95703125 12.453125 C56.85031887 10.17973183 58.493493 8.5531117 61 7 C63.75 6.8125 63.75 6.8125 66 7 C68.29497552 14.92809724 64.78699539 21.92126079 61 28.8125 C56.70661666 35.84212765 51.54011863 41.93754321 46 48 C45.53996582 48.51062988 45.07993164 49.02125977 44.60595703 49.54736328 C34.83698749 60.27495391 22.92326058 69.36243423 10 76 C6.29351538 75.22422415 3.98022796 73.23517097 1 71 C-5.43377468 67.78311266 -11.91520634 67.42553591 -18.76953125 69.21875 C-26.0830229 71.78039331 -31.1851827 76.26346643 -35 83 C-35.65646585 84.96422233 -35.65646585 84.96422233 -36.0625 86.875 C-37 90 -37 90 -39.07421875 91.171875 C-42.66077732 92.1870291 -46.05065881 92.38306327 -49.75 92.375 C-50.85468628 92.37367065 -50.85468628 92.37367065 -51.98168945 92.37231445 C-62.19173228 92.15913179 -76.51215957 90.48784043 -84 83 C-84 78.92690977 -82.86650476 76.62025585 -80.375 73.5625 C-74.87476376 66.64115009 -71.5372884 58.08383684 -68.3984375 49.87109375 C-68.14126953 49.20150635 -67.88410156 48.53191895 -67.61914062 47.84204102 C-66.91521877 45.98131319 -66.23423702 44.11195392 -65.5546875 42.2421875 C-63.14879953 37.22488344 -59.58569342 34.09488936 -54.875 31.25 C-54.21242188 30.84265625 -53.54984375 30.4353125 -52.8671875 30.015625 C-49.20651803 28.02446587 -46.38422396 27.92039791 -42.30078125 28.04296875 C-41.17349609 28.06423828 -40.04621094 28.08550781 -38.88476562 28.10742188 C-36.52248284 28.16037627 -34.16043466 28.22528313 -31.79882812 28.30273438 C-23.41400644 28.43143829 -18.20738702 27.33520895 -11.64453125 22.1328125 C-6.57273757 16.57438617 -4.1411238 10.92234535 -1.91015625 3.84375 C-1 1 -1 1 0 0 Z " fill="#0B468A" transform="translate(785,413)"/>
<path d="M0 0 C17.56780638 5.90393493 32.12103109 17.3277688 45.25830078 30.07275391 C46.56837668 31.32374883 47.92109486 32.5296873 49.27734375 33.73046875 C54.51882914 38.49294317 54.51882914 38.49294317 55.3125 42.9375 C54.6875 46.4375 54.6875 46.4375 53.625 50.1875 C51.67770496 57.41630749 52.70379125 65.15415209 56.39453125 71.65625 C62.64058138 80.26108039 71.64637386 82.72020478 81.6875 84.4375 C82.33644237 86.49902389 82.9815264 88.56176258 83.625 90.625 C83.98464844 91.77355469 84.34429688 92.92210937 84.71484375 94.10546875 C88.18348166 105.98799139 87.76681608 118.74909693 83.6875 130.4375 C83.3575 130.7675 83.0275 131.0975 82.6875 131.4375 C79.00481905 131.14866228 76.18058776 130.6922849 72.8828125 128.98828125 C69.47103913 127.33244503 66.47003121 126.58184632 62.75 125.875 C62.10393799 125.74915527 61.45787598 125.62331055 60.79223633 125.49365234 C56.17091848 124.62292877 51.55150899 124.06999134 46.875 123.5625 C38.57645568 122.48611977 31.76615678 120.37807198 26.25 113.8125 C21.6952673 106.93549513 20.74014418 99.15616946 19.75 91.125 C18.68072975 83.217574 15.79077092 78.72261545 9.65625 73.7578125 C3.42176388 69.5767484 -3.47686025 69.04171056 -10.80859375 68.6484375 C-13.3125 68.4375 -13.3125 68.4375 -15.3125 67.4375 C-14.50124665 61.18544082 -11.03773986 58.31499792 -6.3125 54.4375 C9.92029352 43.4375 9.92029352 43.4375 17.6875 43.4375 C11.515223 30.0755377 4.56504632 20.66814215 -7.9375 12.875 C-15.47210865 8.15939211 -15.47210865 8.15939211 -18.3125 4.4375 C-18.625 1.625 -18.625 1.625 -18.3125 -0.5625 C-12.75036995 -3.34356502 -5.69157137 -1.61629575 0 0 Z " fill="#A79CE1" transform="translate(752.3125,198.5625)"/>
<path d="M0 0 C6.0663661 4.38297517 9.99495249 10.03414579 13.74609375 16.41796875 C17.37590755 22.36220512 21.67574517 25.26075242 28.2890625 27.26953125 C35.26039418 28.6449197 41.39260975 27.56758167 48.03515625 25.3359375 C50.84905178 24.50917438 53.39475595 24.43792892 56.30859375 24.66796875 C55.59058111 35.67749592 49.24046862 43.45878966 42.23510742 51.49023438 C41.71537354 52.10318359 41.19563965 52.71613281 40.66015625 53.34765625 C40.18400879 53.89147949 39.70786133 54.43530273 39.21728516 54.99560547 C38.11910215 56.65711706 38.11910215 56.65711706 38.46313477 58.74829102 C39.94957355 62.12336122 43.4403849 63.22221813 46.62109375 64.73046875 C47.35021973 65.08189941 48.0793457 65.43333008 48.83056641 65.79541016 C58.7121105 70.41836745 68.46680711 72.00931452 79.25537109 72.93505859 C83.00034478 73.27802877 85.12210978 73.5436461 88.30859375 75.66796875 C88.49609375 78.29296875 88.49609375 78.29296875 88.30859375 80.66796875 C70.63246427 91.12202275 47.71871224 88.95967042 28.30859375 84.66796875 C21.17431258 82.73968687 14.1915883 80.35248731 7.30859375 77.66796875 C5.57996094 77.04728516 5.57996094 77.04728516 3.81640625 76.4140625 C1.30859375 74.66796875 1.30859375 74.66796875 0.171875 71.234375 C-0.03823839 69.90365688 -0.22112514 68.56840129 -0.37890625 67.23046875 C-1.00407317 62.63260989 -1.58981469 59.28222007 -4.69140625 55.66796875 C-4.69140625 55.00796875 -4.69140625 54.34796875 -4.69140625 53.66796875 C-5.35140625 53.66796875 -6.01140625 53.66796875 -6.69140625 53.66796875 C-7.46484375 52.80171875 -7.46484375 52.80171875 -8.25390625 51.91796875 C-13.73517148 46.85833931 -19.79265368 45.1505055 -27.1484375 45.3671875 C-29.82484379 45.68375168 -32.22870487 46.36442716 -34.81640625 47.10546875 C-37.68606939 47.71432084 -39.10173782 47.94131038 -41.78125 46.69921875 C-50.30481733 39.81285148 -58.15404401 27.70294918 -61.44140625 17.29296875 C-61.84084991 13.0988103 -61.95627669 8.87473456 -61.69140625 4.66796875 C-59.95671111 2.93327361 -57.68968488 3.50002266 -55.37084961 3.42797852 C-45.65347708 3.11369564 -37.03706707 1.29426792 -27.69140625 -1.33203125 C-18.02771006 -3.98792472 -9.07164802 -5.18172535 0 0 Z " fill="#2E9AD6" transform="translate(655.69140625,436.33203125)"/>
<path d="M0 0 C2.2890625 2.1953125 2.2890625 2.1953125 3.625 5.125 C7.22246195 11.86806878 11.74300286 15.58100095 19 18 C28.29772057 18.7888975 36.18414822 18.64140274 44 13 C44.9075 12.05125 45.815 11.1025 46.75 10.125 C47.4925 9.42375 48.235 8.7225 49 8 C62.02047174 8.73770378 73.9101996 21.60520125 82.33984375 30.45703125 C84 33 84 33 84.6796875 36.04296875 C84 39 84 39 81.0703125 41.23828125 C79.76517044 41.94831348 78.44921827 42.63871401 77.125 43.3125 C69.4266079 47.56257839 63.22577579 52.55087454 57.15234375 58.9453125 C51.0557213 65.36134798 45.59645986 69.24444196 36.5 69.5625 C28.3428735 69.21155386 22.9844963 66.41485604 16.375 61.875 C9.66445106 57.26949328 2.83747713 55.93191089 -5.15625 57.39453125 C-11.022556 58.99537179 -15.0750664 62.12358669 -19.640625 66.0625 C-21.98308846 67.98611238 -24.36735376 69.5063 -27 71 C-29.81984584 68.18015416 -29.33344783 66.32245616 -29.375 62.375 C-29.35974361 51.01176631 -26.07111368 40.53356922 -22 30 C-35.96543798 28.32687907 -48.30629086 27.26983634 -62.0078125 31.1015625 C-63.02210327 31.38459229 -63.02210327 31.38459229 -64.05688477 31.67333984 C-65.95348171 32.21865475 -67.83858689 32.80348706 -69.72265625 33.390625 C-73.31300641 34.05819905 -74.83005895 33.70182091 -78 32 C-78.23260335 29.18937624 -78.31706257 27.51314073 -76.8125 25.078125 C-59.45463553 7.57062377 -24.31248023 -4.04197948 0 0 Z " fill="#622E8C" transform="translate(678,200)"/>
<path d="M0 0 C6.50012849 3.67892805 11.09257927 8.51056264 13.6875 15.5625 C15.69077402 22.84147703 15.02800494 29.23475577 11.75 36 C8.00596528 41.60614722 3.42243954 46.33189012 -3.25 48 C-10.30429912 48.7425578 -18.1578247 49.42312079 -24.40234375 45.51171875 C-30.1108798 40.84109835 -35.49339846 36.26853481 -36.5 28.625 C-36.54489276 20.69020543 -35.21615818 12.88695898 -30.1875 6.5625 C-21.75679634 -1.90355252 -11.13527693 -4.96025972 0 0 Z " fill="#576EC1" transform="translate(875.25,371)"/>
<path d="M0 0 C6.0571315 3.62664386 11.1874446 8.98443271 13.26171875 15.82421875 C14.95355444 23.55062761 14.57269936 29.53722617 10.75 36.5 C10.0075 37.428125 9.265 38.35625 8.5 39.3125 C8.09007812 39.8384375 7.68015625 40.364375 7.2578125 40.90625 C2.36130611 46.5496811 -3.83967734 47.92720288 -11.0625 48.6875 C-18.87955733 47.83473011 -25.31640407 45.39647239 -30.5 39.3125 C-35.39996685 32.35330657 -36.68123972 25.70611685 -35.5 17.3125 C-33.67071217 9.67040939 -28.81910272 4.75611861 -22.5 0.3125 C-15.80239706 -3.04724526 -6.80444276 -3.20132831 0 0 Z " fill="#A69BE0" transform="translate(842.5,231.6875)"/>
<path d="M0 0 C5.62084094 4.85244883 9.41219962 10.48353382 10.3828125 17.94140625 C10.83337316 26.2375992 9.26311267 32.47715651 4 39 C-4.25283539 46.00868936 -11.46153041 46.7628675 -22 46 C-28.22150875 44.42325122 -32.60765387 40.34743657 -36 35 C-39.61091457 27.66916211 -40.41055698 19.54417093 -37.8125 11.75 C-35.12618369 5.52377154 -30.88070776 1.29319635 -25 -2 C-16.0182158 -5.32658674 -8.25321746 -4.79869484 0 0 Z " fill="#64318F" transform="translate(588,231)"/>
<path d="M0 0 C5.61776785 4.25403435 9.58657675 9.3979083 11.0625 16.375 C11.81117639 23.758101 11.34001278 30.14075266 7.0625 36.375 C2.02575848 41.82520538 -2.68541244 45.99206346 -10.27734375 46.67578125 C-11.46457031 46.67964844 -12.65179687 46.68351562 -13.875 46.6875 C-15.05964844 46.70425781 -16.24429688 46.72101563 -17.46484375 46.73828125 C-23.28044389 46.12990013 -27.74313186 43.35427233 -31.9375 39.375 C-37.69189977 31.51335525 -38.62668069 25.07458005 -37.9375 15.375 C-36.0879856 9.10720121 -32.48008344 3.63433549 -26.91015625 0.08203125 C-18.2373577 -4.39164696 -8.61184001 -5.4185235 0 0 Z " fill="#96C3F3" transform="translate(553.9375,371.625)"/>
<path d="M0 0 C5.6461794 4.95962038 8.9516047 10.47367223 10.0625 17.9375 C10.46513726 25.34602558 7.91080272 32.34330456 3.0625 37.9375 C-4.9045292 43.51966191 -11.18834727 45.82735555 -20.9375 44.9375 C-28.56707159 43.13081745 -33.51140377 38.23168481 -37.9375 31.9375 C-40.80721913 26.16042608 -40.76605725 20.24333395 -39.9375 13.9375 C-37.06149933 6.44556942 -31.9111463 0.36809932 -24.69140625 -3.16015625 C-16.11283745 -6.33079528 -7.47617936 -5.32770921 0 0 Z " fill="#2E99D7" transform="translate(644.9375,488.0625)"/>
<path d="M0 0 C5.91870565 4.16882746 10.49729224 8.74333434 12 16 C12.8684135 24.46082866 11.95051032 30.96902205 7 38 C2.71937738 43.02415508 -2.48200767 45.93604879 -9 47 C-16.75563854 47.16180053 -22.76006948 45.93136571 -28.625 40.625 C-29.40875 39.75875 -30.1925 38.8925 -31 38 C-31.721875 37.236875 -32.44375 36.47375 -33.1875 35.6875 C-36.77334801 30.37055295 -37.5556263 24.33413985 -37 18 C-35.620134 11.49491745 -33.07969853 6.37513185 -28 2 C-19.0542524 -3.6708111 -9.68076978 -4.73245178 0 0 Z " fill="#905BB8" transform="translate(717,170)"/>
<path d="M0 0 C6.46766615 3.62518867 11.52830495 8.83890852 13.75 16 C14.54792506 23.50049554 15.11828107 31.12946828 10.296875 37.359375 C4.41509908 43.59762219 -1.40030204 47.95935861 -10.25 48.375 C-17.62373177 48.0149545 -23.15910534 45.0251743 -28.484375 40.00390625 C-33.68187926 34.10496889 -34.99694852 27.7391624 -34.69140625 19.9921875 C-33.50583063 11.95545364 -29.41917298 6.49672572 -23.3125 1.375 C-16.13038154 -3.41307897 -7.77180018 -3.5240071 0 0 Z " fill="#0D478D" transform="translate(784.25,485)"/>
<path d="M0 0 C2.03843254 7.04185786 -0.43960693 12.91305371 -3.62109375 19.20703125 C-8.67544488 28.19616756 -8.67544488 28.19616756 -13 31 C-13 30.01 -13 29.02 -13 28 C-14.32 28 -15.64 28 -17 28 C-17.66 28 -18.32 28 -19 28 C-20 27 -21 26 -22 25 C-22.66 25 -23.32 25 -24 25 C-24.66 25.66 -25.32 26.32 -26 27 C-27.32 27 -28.64 27 -30 27 C-30.66 26.01 -31.32 25.02 -32 24 C-31.33613281 23.55269531 -30.67226563 23.10539062 -29.98828125 22.64453125 C-29.10527344 22.03996094 -28.22226562 21.43539063 -27.3125 20.8125 C-26.44238281 20.22082031 -25.57226562 19.62914062 -24.67578125 19.01953125 C-18.77899148 14.56896145 -14.10414276 8.81993821 -9.20703125 3.328125 C-6.05232072 0.00032416 -4.4566778 -0.11728099 0 0 Z " fill="#0C4386" transform="translate(851,420)"/>
<path d="M0 0 C1.26950684 1.10294034 2.5273798 2.22030314 3.75 3.375 C3.42 4.695 3.09 6.015 2.75 7.375 C2.75 6.715 2.75 6.055 2.75 5.375 C1.43 5.375 0.11 5.375 -1.25 5.375 C-1.25 4.715 -1.25 4.055 -1.25 3.375 C-1.91 3.375 -2.57 3.375 -3.25 3.375 C-3.25 2.715 -3.25 2.055 -3.25 1.375 C-3.91 1.375 -4.57 1.375 -5.25 1.375 C-5.25 0.715 -5.25 0.055 -5.25 -0.625 C-11.19 -0.625 -17.13 -0.625 -23.25 -0.625 C-23.25 0.695 -23.25 2.015 -23.25 3.375 C-25.23 2.715 -27.21 2.055 -29.25 1.375 C-29.25 2.035 -29.25 2.695 -29.25 3.375 C-29.91 3.375 -30.57 3.375 -31.25 3.375 C-31.25 4.035 -31.25 4.695 -31.25 5.375 C-31.91 5.375 -32.57 5.375 -33.25 5.375 C-33.25 7.355 -33.25 9.335 -33.25 11.375 C-33.91 11.375 -34.57 11.375 -35.25 11.375 C-35.25 12.035 -35.25 12.695 -35.25 13.375 C-35.91 13.375 -36.57 13.375 -37.25 13.375 C-37.4861959 19.77853322 -37.073321 25.22129161 -35.25 31.375 C-34.59 31.375 -33.93 31.375 -33.25 31.375 C-33.25 32.035 -33.25 32.695 -33.25 33.375 C-32.59 33.375 -31.93 33.375 -31.25 33.375 C-31.25 34.035 -31.25 34.695 -31.25 35.375 C-30.59 35.375 -29.93 35.375 -29.25 35.375 C-28.92 36.365 -28.59 37.355 -28.25 38.375 C-27.26 38.705 -26.27 39.035 -25.25 39.375 C-25.25 38.715 -25.25 38.055 -25.25 37.375 C-24.59 37.375 -23.93 37.375 -23.25 37.375 C-23.25 38.695 -23.25 40.015 -23.25 41.375 C-22.44175781 41.230625 -21.63351562 41.08625 -20.80078125 40.9375 C-19.73214844 40.751875 -18.66351562 40.56625 -17.5625 40.375 C-16.50675781 40.189375 -15.45101562 40.00375 -14.36328125 39.8125 C-11.60095938 39.42431926 -9.03257957 39.29240024 -6.25 39.375 C-5.92 40.365 -5.59 41.355 -5.25 42.375 C-11.94679501 45.38614884 -19.03709178 45.55654575 -25.9375 42.9375 C-31.81904322 39.97557176 -36.52298866 34.851672 -39.44140625 28.9765625 C-41.30186397 22.99074202 -41.40691634 16.38874647 -39.15234375 10.515625 C-35.12748632 3.43187592 -30.27796845 -1.77336286 -22.5625 -4.625 C-14.22451443 -6.72850396 -6.78357937 -5.2394365 0 0 Z " fill="#429DCD" transform="translate(645.25,488.625)"/>
<path d="M0 0 C0 0.66 0 1.32 0 2 C-9.23455499 4.59866874 -18.504975 4.18617696 -28 4 C-28 5.98 -28 7.96 -28 10 C-27.34 10 -26.68 10 -26 10 C-26 13.3 -26 16.6 -26 20 C-25.01 20 -24.02 20 -23 20 C-20.96564469 23.72965139 -20 25.66905042 -20 30 C-19.34 30 -18.68 30 -18 30 C-18 30.66 -18 31.32 -18 32 C-17.34 32 -16.68 32 -16 32 C-16 33.32 -16 34.64 -16 36 C-14.68 36 -13.36 36 -12 36 C-12 36.66 -12 37.32 -12 38 C-11.34 38 -10.68 38 -10 38 C-10 39.32 -10 40.64 -10 42 C-6.7 42 -3.4 42 0 42 C0 41.34 0 40.68 0 40 C4.29 40 8.58 40 13 40 C13 40.33 13 40.66 13 41 C14.65 41.33 16.3 41.66 18 42 C18 42.66 18 43.32 18 44 C19.32 44.66 20.64 45.32 22 46 C20.375 46.6875 20.375 46.6875 18 47 C17.13375 46.525625 16.2675 46.05125 15.375 45.5625 C9.17918607 42.69406762 3.28200114 43.58439813 -3.125 45.4375 C-5.99466314 46.04635209 -7.41033157 46.27334163 -10.08984375 45.03125 C-18.61341108 38.14488273 -26.46263776 26.03498043 -29.75 15.625 C-30.14944366 11.43084155 -30.26487044 7.20676581 -30 3 C-27.9655577 0.9655577 -23.8116696 1.67775658 -21 1.5625 C-16.10085425 1.33066634 -11.40546585 1.058205 -6.625 -0.125 C-3 -1 -3 -1 0 0 Z " fill="#489EC9" transform="translate(624,438)"/>
<path d="M0 0 C3.27912195 0.30068073 4.67444302 0.66103774 6.9921875 3.07421875 C7.61351562 3.93660156 8.23484375 4.79898437 8.875 5.6875 C14.77689868 13.82421806 22.37905385 18.71093826 30.859375 23.85546875 C38.93032991 28.90343159 43.35235364 34.76170707 46 44 C46.44580084 46.93733221 46.36901762 48.99514222 46 52 C45.01 52.99 44.02 53.98 43 55 C43 50.38 43 45.76 43 41 C42.34 41 41.68 41 41 41 C40.690625 40.05125 40.38125 39.1025 40.0625 38.125 C39.12605258 35.13919592 39.12605258 35.13919592 38 33 C37.01 32.67 36.02 32.34 35 32 C34.34 31.01 33.68 30.02 33 29 C32.34 28.67 31.68 28.34 31 28 C31 27.34 31 26.68 31 26 C28.36 26 25.72 26 23 26 C23 24.68 23 23.36 23 22 C21.68 22 20.36 22 19 22 C19 21.34 19 20.68 19 20 C18.34 20 17.68 20 17 20 C17 19.34 17 18.68 17 18 C16.34 18 15.68 18 15 18 C15 17.34 15 16.68 15 16 C13.68 16 12.36 16 11 16 C11 14.68 11 13.36 11 12 C10.34 12 9.68 12 9 12 C9 11.34 9 10.68 9 10 C8.34 10 7.68 10 7 10 C7 8.68 7 7.36 7 6 C5.68 6 4.36 6 3 6 C3 7.32 3 8.64 3 10 C-2.75 10.125 -2.75 10.125 -5 9 C-4.42647107 5.12867972 -2.51295648 2.91827204 0 0 Z " fill="#A6C9EC" transform="translate(569,324)"/>
<path d="M0 0 C5.61776785 4.25403435 9.58657675 9.3979083 11.0625 16.375 C11.81174922 23.76374996 11.30263248 30.1146382 7.0625 36.375 C4.61925691 39.0345463 2.11246014 41.42728418 -0.9375 43.375 C-1.9275 43.375 -2.9175 43.375 -3.9375 43.375 C-3.9375 42.385 -3.9375 41.395 -3.9375 40.375 C-3.195 40.1275 -2.4525 39.88 -1.6875 39.625 C1.33268724 38.25218762 2.96101841 36.92679908 5.0625 34.375 C5.8497678 32.2368034 5.8497678 32.2368034 6.0625 30.375 C6.7225 30.375 7.3825 30.375 8.0625 30.375 C7.5675 23.94 7.5675 23.94 7.0625 17.375 C6.7325 17.375 6.4025 17.375 6.0625 17.375 C6.0625 15.065 6.0625 12.755 6.0625 10.375 C5.4025 10.375 4.7425 10.375 4.0625 10.375 C4.0625 9.715 4.0625 9.055 4.0625 8.375 C3.4025 8.375 2.7425 8.375 2.0625 8.375 C2.0625 7.055 2.0625 5.735 2.0625 4.375 C0.7425 4.375 -0.5775 4.375 -1.9375 4.375 C-1.9375 3.715 -1.9375 3.055 -1.9375 2.375 C-2.5975 2.375 -3.2575 2.375 -3.9375 2.375 C-3.9375 1.715 -3.9375 1.055 -3.9375 0.375 C-5.83309964 0.20569605 -7.72899231 0.03967136 -9.625 -0.125 C-10.68074219 -0.2178125 -11.73648438 -0.310625 -12.82421875 -0.40625 C-15.54386025 -0.5973415 -18.21289856 -0.66543935 -20.9375 -0.625 C-20.9375 -1.285 -20.9375 -1.945 -20.9375 -2.625 C-13.93445346 -4.77082661 -6.18444397 -3.89121894 0 0 Z " fill="#A8C9E9" transform="translate(553.9375,371.625)"/>
<path d="M0 0 C1.32 0 2.64 0 4 0 C4 1.32 4 2.64 4 4 C5.32 3.67 6.64 3.34 8 3 C12.87626031 8.8863428 12.87626031 8.8863428 13.375 13.375 C13 16 13 16 12 17 C7.33521915 17.42407099 4.81535994 16.69319525 1 14 C1.33 12.68 1.66 11.36 2 10 C0.68 10 -0.64 10 -2 10 C-2 9.34 -2 8.68 -2 8 C-2.66 8 -3.32 8 -4 8 C-4 7.34 -4 6.68 -4 6 C-4.66 6 -5.32 6 -6 6 C-6 5.34 -6 4.68 -6 4 C-3 2 -3 2 0 2 C0 1.34 0 0.68 0 0 Z " fill="#94C3F0" transform="translate(594,472)"/>
<path d="M0 0 C4.875 1.875 4.875 1.875 6 3 C5.71269945 5.33944736 5.38063221 7.6739143 5 10 C3.02 10.66 1.04 11.32 -1 12 C-1 12.66 -1 13.32 -1 14 C-0.34 14 0.32 14 1 14 C1.96541545 17.18554592 2.05239684 19.88752707 1.87890625 23.203125 C1.83056641 24.1828125 1.78222656 25.1625 1.73242188 26.171875 C1.67634766 27.18765625 1.62027344 28.2034375 1.5625 29.25 C1.51029297 30.28125 1.45808594 31.3125 1.40429688 32.375 C1.27484366 34.91699039 1.13988672 37.45856593 1 40 C0.67 40 0.34 40 0 40 C0 35.05 0 30.1 0 25 C-0.66 25 -1.32 25 -2 25 C-4.96934548 9.33140017 -4.96934548 9.33140017 -4 4 C-2 1.4375 -2 1.4375 0 0 Z " fill="#5A68B1" transform="translate(845,280)"/>
<path d="M0 0 C-0.4615807 5.53896846 -1.74385099 10.39647899 -5 15 C-5.99 15.33 -6.98 15.66 -8 16 C-8 15.01 -8 14.02 -8 13 C-7.34 13 -6.68 13 -6 13 C-6 9.7 -6 6.4 -6 3 C-6.66 3 -7.32 3 -8 3 C-8 3.66 -8 4.32 -8 5 C-9.32 5 -10.64 5 -12 5 C-12 5.66 -12 6.32 -12 7 C-17.94 7 -23.88 7 -30 7 C-30 6.34 -30 5.68 -30 5 C-30.99 5 -31.98 5 -33 5 C-33 4.34 -33 3.68 -33 3 C-29.73833299 1.91277766 -29.13991652 2.13623114 -26 3 C-19.59957917 3.58389804 -14.33369412 2.70398556 -8.2734375 0.66796875 C-5.45954197 -0.15879437 -2.9138378 -0.23003983 0 0 Z " fill="#419ACB" transform="translate(712,461)"/>
<path d="M0 0 C14.11628952 0.05347079 26.47573749 6.00321329 39 12 C39 11.34 39 10.68 39 10 C39.66 10 40.32 10 41 10 C40.67 11.65 40.34 13.3 40 15 C38.68 15 37.36 15 36 15 C36 14.34 36 13.68 36 13 C35.30132813 12.79503906 34.60265625 12.59007812 33.8828125 12.37890625 C32.97273437 12.10949219 32.06265625 11.84007812 31.125 11.5625 C30.22007812 11.29566406 29.31515625 11.02882813 28.3828125 10.75390625 C26 10 26 10 24 9 C24 8.34 24 7.68 24 7 C20.7 7 17.4 7 14 7 C14 6.01 14 5.02 14 4 C11.03 4 8.06 4 5 4 C3.95550089 7.13349732 4.06576355 7.98968256 5 11 C4.34 11 3.68 11 3 11 C1.7109375 9.46875 1.7109375 9.46875 0.375 7.5 C-0.07101562 6.8503125 -0.51703125 6.200625 -0.9765625 5.53125 C-1.48316406 4.77328125 -1.48316406 4.77328125 -2 4 C-1.34 2.68 -0.68 1.36 0 0 Z " fill="#7682B8" transform="translate(798,325)"/>
<path d="M0 0 C2.31 0 4.62 0 7 0 C1.38714735 8.67966905 1.38714735 8.67966905 -1.9375 12.3125 C-4.24407289 14.73320553 -4.24407289 14.73320553 -3.9375 17.25 C-3.01136225 19.18156409 -3.01136225 19.18156409 -1 21 C-1.66 21.33 -2.32 21.66 -3 22 C-5.625 21.0625 -5.625 21.0625 -8 20 C-8 16.7 -8 13.4 -8 10 C-8.66 10 -9.32 10 -10 10 C-10 8.68 -10 7.36 -10 6 C-9.34 6 -8.68 6 -8 6 C-8 5.34 -8 4.68 -8 4 C-7.34 4 -6.68 4 -6 4 C-6 4.66 -6 5.32 -6 6 C-5.34 6 -4.68 6 -4 6 C-4 5.34 -4 4.68 -4 4 C-2.68 3.67 -1.36 3.34 0 3 C0 2.01 0 1.02 0 0 Z " fill="#349BD2" transform="translate(698,478)"/>
<path d="M0 0 C1.32 0.33 2.64 0.66 4 1 C4 1.66 4 2.32 4 3 C4.66 3 5.32 3 6 3 C6 3.66 6 4.32 6 5 C6.66 5 7.32 5 8 5 C8 5.66 8 6.32 8 7 C8.66 7 9.32 7 10 7 C10 8.32 10 9.64 10 11 C11.98 11 13.96 11 16 11 C16 12.32 16 13.64 16 15 C16.66 15 17.32 15 18 15 C18 16.32 18 17.64 18 19 C17.34 19 16.68 19 16 19 C16 18.34 16 17.68 16 17 C15.34 17 14.68 17 14 17 C13.67 16.01 13.34 15.02 13 14 C12.67 16.31 12.34 18.62 12 21 C12.66 21 13.32 21 14 21 C14 21.66 14 22.32 14 23 C14.66 23 15.32 23 16 23 C16 23.66 16 24.32 16 25 C17.32 25 18.64 25 20 25 C20 25.66 20 26.32 20 27 C20.66 27 21.32 27 22 27 C22 27.66 22 28.32 22 29 C23.32 29.33 24.64 29.66 26 30 C21.19946898 30.40004425 17.0461917 30.14532338 12.72265625 27.87109375 C9.42232021 24.28637501 9.27735707 19.20030856 8.66796875 14.53125 C8.00524944 11.02775145 7.26614819 9.63245708 5 7 C5 6.34 5 5.68 5 5 C4.34 5 3.68 5 3 5 C1.375 3.625 1.375 3.625 0 2 C0 1.34 0 0.68 0 0 Z " fill="#42A0CF" transform="translate(646,485)"/>
<path d="M0 0 C4.95 0 9.9 0 15 0 C15.33 0.99 15.66 1.98 16 3 C18.97 3.33 21.94 3.66 25 4 C25 4.99 25 5.98 25 7 C26.65 7 28.3 7 30 7 C24.86215086 10.41666968 18.69093427 8.44573183 12.97607422 7.41796875 C8.17359747 6.40217431 3.57480611 4.75495356 -1 3 C-0.67 2.01 -0.34 1.02 0 0 Z " fill="#3898CC" transform="translate(673,514)"/>
<path d="M0 0 C3.29184747 2.23542124 5.69062933 4.38853332 8.203125 7.49609375 C8.203125 8.81609375 8.203125 10.13609375 8.203125 11.49609375 C7.543125 11.49609375 6.883125 11.49609375 6.203125 11.49609375 C6.203125 10.83609375 6.203125 10.17609375 6.203125 9.49609375 C5.543125 9.49609375 4.883125 9.49609375 4.203125 9.49609375 C4.203125 8.83609375 4.203125 8.17609375 4.203125 7.49609375 C3.543125 7.49609375 2.883125 7.49609375 2.203125 7.49609375 C2.203125 6.83609375 2.203125 6.17609375 2.203125 5.49609375 C1.543125 5.49609375 0.883125 5.49609375 0.203125 5.49609375 C0.203125 4.83609375 0.203125 4.17609375 0.203125 3.49609375 C-0.374375 3.82609375 -0.951875 4.15609375 -1.546875 4.49609375 C-3.796875 5.49609375 -3.796875 5.49609375 -7.796875 5.49609375 C-7.796875 4.83609375 -7.796875 4.17609375 -7.796875 3.49609375 C-6.476875 3.49609375 -5.156875 3.49609375 -3.796875 3.49609375 C-3.796875 2.83609375 -3.796875 2.17609375 -3.796875 1.49609375 C-4.456875 1.49609375 -5.116875 1.49609375 -5.796875 1.49609375 C-5.796875 0.83609375 -5.796875 0.17609375 -5.796875 -0.50390625 C-9.096875 -0.50390625 -12.396875 -0.50390625 -15.796875 -0.50390625 C-15.796875 0.15609375 -15.796875 0.81609375 -15.796875 1.49609375 C-16.456875 1.49609375 -17.116875 1.49609375 -17.796875 1.49609375 C-17.796875 0.83609375 -17.796875 0.17609375 -17.796875 -0.50390625 C-19.776875 -0.50390625 -21.756875 -0.50390625 -23.796875 -0.50390625 C-23.796875 -1.16390625 -23.796875 -1.82390625 -23.796875 -2.50390625 C-15.45854017 -4.9145149 -7.5341704 -4.28961637 0 0 Z " fill="#449ECE" transform="translate(655.796875,436.50390625)"/>
<path d="M0 0 C0.66 0 1.32 0 2 0 C0.84826645 2.46800047 -0.04783565 4.04783565 -2 6 C-1.67673447 9.59679066 -1.67673447 9.59679066 -1 13 C-0.34 13 0.32 13 1 13 C1 12.34 1 11.68 1 11 C1.66 11 2.32 11 3 11 C3 10.34 3 9.68 3 9 C3.66 9 4.32 9 5 9 C5 10.32 5 11.64 5 13 C4.34 13 3.68 13 3 13 C3 13.66 3 14.32 3 15 C1.02 15.66 -0.96 16.32 -3 17 C-3.45375 16.505 -3.9075 16.01 -4.375 15.5 C-5.87635519 13.77390663 -5.87635519 13.77390663 -8 14 C-8.66 14.66 -9.32 15.32 -10 16 C-11.32 16 -12.64 16 -14 16 C-14.66 15.01 -15.32 14.02 -16 13 C-15.33613281 12.55269531 -14.67226563 12.10539062 -13.98828125 11.64453125 C-9.23600705 8.39078439 -4.88400469 5.25987612 -1 1 C-0.67 0.67 -0.34 0.34 0 0 Z " fill="#164D93" transform="translate(835,431)"/>
<path d="M0 0 C1.8671875 0.14453125 1.8671875 0.14453125 4 1 C7.70001928 5.70026373 10.47810642 11.21680441 12 17 C11.34 17 10.68 17 10 17 C8.37485532 18.45833358 8.37485532 18.45833358 7 20 C6.34 19.67 5.68 19.34 5 19 C5 17.68 5 16.36 5 15 C4.34 15 3.68 15 3 15 C2.67 13.35 2.34 11.7 2 10 C3.32 9.67 4.64 9.34 6 9 C6 8.01 6 7.02 6 6 C5.34 6 4.68 6 4 6 C2.375 4.5 2.375 4.5 1 3 C1 4.32 1 5.64 1 7 C0.34 7 -0.32 7 -1 7 C-1.33 8.65 -1.66 10.3 -2 12 C-2.99 12 -3.98 12 -5 12 C-4.35758106 10.186287 -3.71096881 8.37405876 -3.0625 6.5625 C-2.70285156 5.55316406 -2.34320312 4.54382813 -1.97265625 3.50390625 C-1 1 -1 1 0 0 Z " fill="#1B5192" transform="translate(785,413)"/>
<path d="M0 0 C2.05124528 7.08612007 -0.46536023 12.9945161 -3.69140625 19.3125 C-7.06874812 25.29159375 -7.06874812 25.29159375 -9 28 C-9.66 28 -10.32 28 -11 28 C-9.8152731 24.6612242 -8.28019828 21.81620472 -6.4375 18.8125 C-3.66527381 13.96925777 -3.12665899 9.51542335 -3 4 C-6.14191424 5.53604696 -9.08596738 7.05731159 -12 9 C-11.74956884 5.61917938 -10.7185873 4.7185873 -8.25 2.25 C-4.98370194 -0.01128327 -3.8309219 -0.56337087 0 0 Z " fill="#2B568A" transform="translate(851,420)"/>
<path d="M0 0 C0.33 0 0.66 0 1 0 C1.0501139 4.33755045 1.08605039 8.67493944 1.10986328 13.01269531 C1.11980927 14.48277733 1.13337091 15.95284016 1.15087891 17.42285156 C1.41702984 40.37445525 1.41702984 40.37445525 -3 47 C-3.495 45.515 -3.495 45.515 -4 44 C-3.505 43.505 -3.505 43.505 -3 43 C-2.91348389 41.58429877 -2.89295096 40.164405 -2.90234375 38.74609375 C-2.90556641 37.89208984 -2.90878906 37.03808594 -2.91210938 36.15820312 C-2.92048828 35.26037109 -2.92886719 34.36253906 -2.9375 33.4375 C-2.94201172 32.53580078 -2.94652344 31.63410156 -2.95117188 30.70507812 C-2.96299775 28.46998686 -2.9794778 26.23502563 -3 24 C-2.67 24 -2.34 24 -2 24 C-1.93941406 22.68644531 -1.87882813 21.37289063 -1.81640625 20.01953125 C-1.73196744 18.28384459 -1.64732112 16.54816802 -1.5625 14.8125 C-1.50352539 13.51602539 -1.50352539 13.51602539 -1.44335938 12.19335938 C-1.23652984 8.04085878 -0.99896469 4.05462138 0 0 Z " fill="#7685B9" transform="translate(863,320)"/>
<path d="M0 0 C1.32 0 2.64 0 4 0 C5.75781827 5.30793039 6.29590325 9.91606613 6.265625 15.48828125 C6.26753845 16.27269089 6.2694519 17.05710052 6.27142334 17.86528015 C6.27277583 19.50988082 6.26914527 21.15449251 6.26074219 22.79907227 C6.24995654 25.32266872 6.26070577 27.845565 6.2734375 30.36914062 C6.27211715 31.97135574 6.26955734 33.57357042 6.265625 35.17578125 C6.26967346 35.93095535 6.27372192 36.68612946 6.27789307 37.46418762 C6.22997097 42.77002903 6.22997097 42.77002903 4 45 C4 41.37 4 37.74 4 34 C3.34 34 2.68 34 2 34 C2 28.72 2 23.44 2 18 C2.33 18 2.66 18 3 18 C3.02725341 16.2709226 3.04650987 14.54171824 3.0625 12.8125 C3.07410156 11.84957031 3.08570313 10.88664063 3.09765625 9.89453125 C3.00486622 7.14423487 2.62111685 4.67520409 2 2 C1.34 2 0.68 2 0 2 C0 1.34 0 0.68 0 0 Z " fill="#9B74B7" transform="translate(640,238)"/>
<path d="M0 0 C0.33 0.99 0.66 1.98 1 3 C1.99 3 2.98 3 4 3 C5.49774064 11.64358754 4.66705399 18.15930517 -0.1875 25.5625 C-0.785625 26.366875 -1.38375 27.17125 -2 28 C-2.66 27.67 -3.32 27.34 -4 27 C-4 26.01 -4 25.02 -4 24 C-3.34 24 -2.68 24 -2 24 C-2 22.68 -2 21.36 -2 20 C-2.66 20 -3.32 20 -4 20 C-4 18.68 -4 17.36 -4 16 C-2.68 16 -1.36 16 0 16 C0 15.34 0 14.68 0 14 C0.66 14 1.32 14 2 14 C2 10.7 2 7.4 2 4 C1.34 4 0.68 4 0 4 C0 2.68 0 1.36 0 0 Z " fill="#5AA9D2" transform="translate(650,498)"/>
<path d="M0 0 C0.66 0.33 1.32 0.66 2 1 C1.67 3.31 1.34 5.62 1 8 C1.99 7.67 2.98 7.34 4 7 C4 8.32 4 9.64 4 11 C4.66 11 5.32 11 6 11 C6.33 12.65 6.66 14.3 7 16 C1.71201818 15.58525633 -1.11690718 14.64775386 -5 11 C-4.54663921 6.12637153 -3.2910841 3.60957611 0 0 Z " fill="#164F88" transform="translate(706,485)"/>
<path d="M0 0 C0.99 0.33 1.98 0.66 3 1 C2.34 1 1.68 1 1 1 C1 1.66 1 2.32 1 3 C1.66 3 2.32 3 3 3 C3 3.66 3 4.32 3 5 C2.34 5 1.68 5 1 5 C1 6.32 1 7.64 1 9 C0.34 9 -0.32 9 -1 9 C-1 9.66 -1 10.32 -1 11 C-2.32 10.67 -3.64 10.34 -5 10 C-5 9.01 -5 8.02 -5 7 C-5.66 7 -6.32 7 -7 7 C-6.34 9.64 -5.68 12.28 -5 15 C-5.66 15 -6.32 15 -7 15 C-7 16.32 -7 17.64 -7 19 C-7.66 19 -8.32 19 -9 19 C-10.0070238 13.96488101 -9.97387813 10.76052962 -8 6 C-7.34 6 -6.68 6 -6 6 C-6 5.34 -6 4.68 -6 4 C-4.35 3.67 -2.7 3.34 -1 3 C-0.67 2.01 -0.34 1.02 0 0 Z " fill="#0A407F" transform="translate(731,445)"/>
<path d="M0 0 C0.33 1.32 0.66 2.64 1 4 C0.01 4 -0.98 4 -2 4 C-2.33 5.98 -2.66 7.96 -3 10 C-3.66 10 -4.32 10 -5 10 C-5 12.64 -5 15.28 -5 18 C-5.66 18 -6.32 18 -7 18 C-7 18.66 -7 19.32 -7 20 C-6.34 20 -5.68 20 -5 20 C-5 21.98 -5 23.96 -5 26 C-4.34 26 -3.68 26 -3 26 C-2.67 25.34 -2.34 24.68 -2 24 C-1.67 25.32 -1.34 26.64 -1 28 C-2.32 28.99 -3.64 29.98 -5 31 C-8.76965096 25.34552357 -8.77569625 19.64030082 -8 13 C-6.48266962 7.74770253 -4.2840133 3.51901092 0 0 Z " fill="#AA9FDB" transform="translate(815,236)"/>
<path d="M0 0 C2.97 0.33 5.94 0.66 9 1 C5.25618103 5.09480199 1.1331093 8.7448683 -4 11 C-4.99 10.67 -5.98 10.34 -7 10 C-6.01 7.36 -5.02 4.72 -4 2 C-2.68 2 -1.36 2 0 2 C0 1.34 0 0.68 0 0 Z " fill="#6678C0" transform="translate(818,432)"/>
<path d="M0 0 C0.969375 0.86625 1.93875 1.7325 2.9375 2.625 C7.03550142 6.15196844 11.45085539 9.09102317 16 12 C15.203125 15.84375 15.203125 15.84375 13.375 17.25 C10.1989627 18.25295915 7.30771122 18.12721966 4 18 C5.1875 16.5 5.1875 16.5 7 15 C9.6875 14.8125 9.6875 14.8125 12 15 C11.67 14.01 11.34 13.02 11 12 C10.01 11.67 9.02 11.34 8 11 C8 10.34 8 9.68 8 9 C6.68 9 5.36 9 4 9 C4 8.34 4 7.68 4 7 C3.34 7 2.68 7 2 7 C2 6.34 2 5.68 2 5 C1.34 5 0.68 5 0 5 C0 3.35 0 1.7 0 0 Z " fill="#A8CCE9" transform="translate(614,415)"/>
<path d="M0 0 C0.33 0.99 0.66 1.98 1 3 C1.66 3 2.32 3 3 3 C3.3125 5.8125 3.3125 5.8125 3 9 C-0.50672903 11.97540645 -4.61453128 12.8415743 -9 14 C-9.99 14.495 -9.99 14.495 -11 15 C-11.66 13.68 -12.32 12.36 -13 11 C-10.50935112 10.31292445 -8.62113708 10 -6 10 C-5.67 8.35 -5.34 6.7 -5 5 C-3.68 5 -2.36 5 -1 5 C-0.67 3.35 -0.34 1.7 0 0 Z " fill="#5A2E86" transform="translate(757,231)"/>
<path d="M0 0 C4.25 2.83333333 4.25 2.83333333 6 5 C6 6.32 6 7.64 6 9 C5.071875 9.3403125 5.071875 9.3403125 4.125 9.6875 C1.27559395 11.44742727 0.92310733 12.80462848 0 16 C-0.3813074 18.32597511 -0.72460254 20.65912158 -1 23 C-1.66 22.67 -2.32 22.34 -3 22 C-2.835 21.113125 -2.67 20.22625 -2.5 19.3125 C-1.77465105 14.48346453 -2.02012178 9.66056682 -2.16015625 4.79296875 C-2 2 -2 2 0 0 Z " fill="#9D70BD" transform="translate(602,241)"/>
<path d="M0 0 C2.2233881 2.2233881 2.3605016 2.92305521 2.8515625 5.9140625 C2.98046875 6.67460937 3.109375 7.43515625 3.2421875 8.21875 C3.36851562 9.0128125 3.49484375 9.806875 3.625 10.625 C3.7590625 11.42679687 3.893125 12.22859375 4.03125 13.0546875 C4.36134789 15.03527484 4.68161083 17.01749675 5 19 C7.97 19 10.94 19 14 19 C13 21 13 21 10.8125 22.125 C7.73230669 23.08328236 5.20690052 23.14915816 2 23 C1.67 19.37 1.34 15.74 1 12 C0.67 12 0.34 12 0 12 C0 8.04 0 4.08 0 0 Z " fill="#245485" transform="translate(796,431)"/>
<path d="M0 0 C1.125 3.75 1.125 3.75 0 6 C-0.66 6 -1.32 6 -2 6 C-2 7.98 -2 9.96 -2 12 C-2.66 12 -3.32 12 -4 12 C-3.9071875 13.85625 -3.9071875 13.85625 -3.8125 15.75 C-3.80581397 19.56103608 -4.47702567 21.08887577 -7 24 C-7.72351427 25.98014432 -8.40265389 27.97821315 -9 30 C-10.16015625 28.51171875 -10.16015625 28.51171875 -11 26 C-10.28538908 23.12079999 -9.4887621 20.56450911 -8.4375 17.8125 C-8.1595459 17.05525635 -7.8815918 16.2980127 -7.59521484 15.51782227 C-5.54045645 10.06129721 -3.1636053 4.91338699 0 0 Z " fill="#AACCF0" transform="translate(562,332)"/>
<path d="M0 0 C1.40378906 -0.02126953 1.40378906 -0.02126953 2.8359375 -0.04296875 C5.78618154 0.20081892 7.94864112 0.95637492 10.625 2.1875 C10.625 3.1775 10.625 4.1675 10.625 5.1875 C3.67458914 5.45368595 -2.61014355 4.7995509 -9.375 3.1875 C-7.50033589 -0.56182822 -3.74570371 0.0256555 0 0 Z " fill="#205289" transform="translate(773.375,482.8125)"/>
<path d="M0 0 C3.54295752 2.31411974 5.91889762 4.1498308 8.28515625 7.69921875 C5.08120209 7.69921875 3.19115886 6.95586853 0.28515625 5.69921875 C0.28515625 5.03921875 0.28515625 4.37921875 0.28515625 3.69921875 C-0.37484375 3.69921875 -1.03484375 3.69921875 -1.71484375 3.69921875 C-1.71484375 3.03921875 -1.71484375 2.37921875 -1.71484375 1.69921875 C-3.61044339 1.5299148 -5.50633606 1.36389011 -7.40234375 1.19921875 C-8.45808594 1.10640625 -9.51382813 1.01359375 -10.6015625 0.91796875 C-13.321204 0.72687725 -15.99024231 0.6587794 -18.71484375 0.69921875 C-18.71484375 0.03921875 -18.71484375 -0.62078125 -18.71484375 -1.30078125 C-12.64147939 -3.16174088 -5.72136059 -2.74131378 0 0 Z " fill="#B7D2EE" transform="translate(551.71484375,370.30078125)"/>
<path d="M0 0 C0.33 0 0.66 0 1 0 C1.96290481 5.33974485 1.96290481 5.33974485 2 8 C0.625 9.6875 0.625 9.6875 -1 11 C-1.72197162 13.60611077 -1.72197162 13.60611077 -2 16 C-2.99 15.67 -3.98 15.34 -5 15 C-5.99 15.33 -6.98 15.66 -8 16 C-8.33 17.98 -8.66 19.96 -9 22 C-8.34 22.33 -7.68 22.66 -7 23 C-7.99 23.33 -8.98 23.66 -10 24 C-11.21960586 18.86023244 -11.21960586 18.86023244 -11 16 C-8.3125 13.4375 -8.3125 13.4375 -6.6328125 12.28125 C-2.92879046 9.37474467 -0.73642429 4.60265179 0 0 Z " fill="#A1C6EB" transform="translate(566,400)"/>
<path d="M0 0 C5.62219846 4.66522851 11.16010796 9.51259405 16 15 C16 15.66 16 16.32 16 17 C13.69 16.67 11.38 16.34 9 16 C9 14.35 9 12.7 9 11 C8.01 11 7.02 11 6 11 C3 6.77777778 3 6.77777778 3 4 C1.68 4 0.36 4 -1 4 C-0.67 2.68 -0.34 1.36 0 0 Z " fill="#A8A1D4" transform="translate(791,223)"/>
<path d="M0 0 C-0.66 0.66 -1.32 1.32 -2 2 C-1.34 2.66 -0.68 3.32 0 4 C-1.6232687 4.6708712 -3.24867578 5.33657029 -4.875 6 C-5.77992188 6.37125 -6.68484375 6.7425 -7.6171875 7.125 C-10 8 -10 8 -12 8 C-12 7.01 -12 6.02 -12 5 C-13.32 4.67 -14.64 4.34 -16 4 C-13.90049414 3.13444052 -11.7952093 2.28288723 -9.6875 1.4375 C-8.51574219 0.96183594 -7.34398437 0.48617187 -6.13671875 -0.00390625 C-3 -1 -3 -1 0 0 Z " fill="#63368B" transform="translate(636,208)"/>
<path d="M0 0 C0.99 0.33 1.98 0.66 3 1 C3 2.32 3 3.64 3 5 C4.32 5.33 5.64 5.66 7 6 C8.10844919 9.32534757 7.84454356 11.62182575 7 15 C7.66 15 8.32 15 9 15 C8.67 16.98 8.34 18.96 8 21 C7.34 21 6.68 21 6 21 C5.6596875 19.1128125 5.6596875 19.1128125 5.3125 17.1875 C4.05238546 11.41120854 1.58898683 6.28667158 -1 1 C-0.67 0.67 -0.34 0.34 0 0 Z " fill="#6E7EC0" transform="translate(797,417)"/>
<path d="M0 0 C0.99 0.33 1.98 0.66 3 1 C2.67 1.928125 2.34 2.85625 2 3.8125 C-0.29235673 11.95943687 0.55047198 19.38229229 4 27 C3.01 27 2.02 27 1 27 C-3.0836972 20.87445419 -2.9612229 11.84790681 -1.55078125 4.734375 C-1.09328562 3.13800729 -0.55632712 1.56467002 0 0 Z " fill="#A9CEEE" transform="translate(609,386)"/>
<path d="M0 0 C4.79132712 0.49627682 8.02090287 2.80228492 11.8125 5.5625 C12.40998047 5.98724609 13.00746094 6.41199219 13.62304688 6.84960938 C15.08740533 7.89223259 16.54445735 8.94510452 18 10 C16.68 10.33 15.36 10.66 14 11 C14 11.66 14 12.32 14 13 C13.34 13 12.68 13 12 13 C12 11.68 12 10.36 12 9 C10.68 9 9.36 9 8 9 C8 8.34 8 7.68 8 7 C7.34 7 6.68 7 6 7 C6 6.34 6 5.68 6 5 C5.34 5 4.68 5 4 5 C4 4.34 4 3.68 4 3 C2.68 3 1.36 3 0 3 C0 2.01 0 1.02 0 0 Z " fill="#A2C2E6" transform="translate(580,337)"/>
<path d="M0 0 C3.09419911 4.64129867 5.89384498 9.39920208 6.125 15.0625 C4.50559224 19.29095359 1.8746949 22.53630034 -1 26 C-1.66 25.67 -2.32 25.34 -3 25 C-3 24.34 -3 23.68 -3 23 C-2.34 23 -1.68 23 -1 23 C-1 22.34 -1 21.68 -1 21 C-0.34 21 0.32 21 1 21 C2.35258925 16.77315859 2.97504071 12.01102146 1 7.9375 C0.67 7.298125 0.34 6.65875 0 6 C-0.125 2.75 -0.125 2.75 0 0 Z " fill="#7484BB" transform="translate(837,399)"/>
<path d="M0 0 C0.99 0.33 1.98 0.66 3 1 C3 1.66 3 2.32 3 3 C3.66 3 4.32 3 5 3 C5 3.66 5 4.32 5 5 C10.69013624 7.30681199 15.39267057 8.23964876 21.50390625 8.62109375 C24 9 24 9 26 11 C23.79229195 11.08165496 21.58369575 11.13948488 19.375 11.1875 C18.14523437 11.22230469 16.91546875 11.25710938 15.6484375 11.29296875 C9.71059041 10.8161609 5.2895119 8.04439693 1 4 C0.1875 1.75 0.1875 1.75 0 0 Z " fill="#B3CEEA" transform="translate(521,407)"/>
<path d="M0 0 C0.66 0.33 1.32 0.66 2 1 C1 4 1 4 -1.03515625 5.17578125 C-4.90332027 6.25112065 -8.4443108 6.25341711 -12.4375 6.1875 C-13.54448242 6.1865332 -13.54448242 6.1865332 -14.67382812 6.18554688 C-18.88394895 6.15186591 -22.85453367 5.82120965 -27 5 C-27 4.67 -27 4.34 -27 4 C-19.08 3.67 -11.16 3.34 -3 3 C-3 2.34 -3 1.68 -3 1 C-2.01 0.67 -1.02 0.34 0 0 Z " fill="#3465A0" transform="translate(747,499)"/>
<path d="M0 0 C0.33 0 0.66 0 1 0 C1.33 1.98 1.66 3.96 2 6 C2.33 6 2.66 6 3 6 C3.02722517 8.20826378 3.04649729 10.41662638 3.0625 12.625 C3.07410156 13.85476563 3.08570313 15.08453125 3.09765625 16.3515625 C3.00863924 19.67723791 2.63686087 22.74047588 2 26 C0.68 26.33 -0.64 26.66 -2 27 C-2 25.68 -2 24.36 -2 23 C-1.34 23 -0.68 23 0 23 C0 15.41 0 7.82 0 0 Z " fill="#A49DD1" transform="translate(836,297)"/>
<path d="M0 0 C0 0.66 0 1.32 0 2 C-2.9375 1.625 -2.9375 1.625 -6 1 C-6.33 0.34 -6.66 -0.32 -7 -1 C-8.58294782 -1.05437607 -10.16644256 -1.09296271 -11.75 -1.125 C-12.63171875 -1.14820313 -13.5134375 -1.17140625 -14.421875 -1.1953125 C-17.15352576 -0.98836926 -18.60103355 -0.23849081 -21 1 C-23 1 -25 1 -27 1 C-27 0.34 -27 -0.32 -27 -1 C-16.59861145 -5.04498443 -10.06323661 -4.61919058 0 0 Z " fill="#6F4294" transform="translate(588,231)"/>
<path d="M0 0 C1.13201694 3.39605081 0.71634649 4.57745567 0 8 C0.061875 9.03125 0.12375 10.0625 0.1875 11.125 C0 14 0 14 -1.8125 15.9375 C-4 17 -4 17 -7 16 C-6.02394493 13.51956646 -5.04432337 11.04064915 -4.0625 8.5625 C-3.78470703 7.85544922 -3.50691406 7.14839844 -3.22070312 6.41992188 C-1.11328125 1.11328125 -1.11328125 1.11328125 0 0 Z " fill="#1B518D" transform="translate(722,451)"/>
<path d="M0 0 C3 1 3 1 4 3 C6.02463255 3.65213292 6.02463255 3.65213292 8 4 C8 4.66 8 5.32 8 6 C9.32 6 10.64 6 12 6 C12.28875 6.804375 12.5775 7.60875 12.875 8.4375 C13.73262568 11.1326468 13.73262568 11.1326468 16 12 C16 12.66 16 13.32 16 14 C15.01 14.33 14.02 14.66 13 15 C12.319375 14.113125 11.63875 13.22625 10.9375 12.3125 C8.45934367 9.29468785 5.76805413 7.30563318 2.453125 5.2734375 C0.61126621 3.65933544 0.38094884 2.37591776 0 0 Z " fill="#A4C9EB" transform="translate(550,364)"/>
<path d="M0 0 C0.33 0 0.66 0 1 0 C1.33 3.3 1.66 6.6 2 10 C2.99 10.33 3.98 10.66 5 11 C4.67 12.65 4.34 14.3 4 16 C6.86724686 15.42655063 7.8614515 15.1385485 10 13 C9.125 17.875 9.125 17.875 8 19 C5.5625 19.25 5.5625 19.25 3 19 C-0.83508741 13.24736889 -0.11884965 6.68199149 0 0 Z " fill="#9F7DBE" transform="translate(536,342)"/>
<path d="M0 0 C0.66 0.66 1.32 1.32 2 2 C1.625 5.125 1.625 5.125 1 8 C0.34 8 -0.32 8 -1 8 C-1 6.35 -1 4.7 -1 3 C-1.66 3 -2.32 3 -3 3 C-3 2.34 -3 1.68 -3 1 C-8.94 0.67 -14.88 0.34 -21 0 C-21 -0.33 -21 -0.66 -21 -1 C-13.83476603 -2.46979158 -6.82044192 -2.99434036 0 0 Z " fill="#A785C2" transform="translate(647,233)"/>
<path d="M0 0 C0.66 0 1.32 0 2 0 C2.20496094 0.75925781 2.40992188 1.51851563 2.62109375 2.30078125 C2.89050781 3.29464844 3.15992188 4.28851563 3.4375 5.3125 C3.83775391 6.79169922 3.83775391 6.79169922 4.24609375 8.30078125 C4.78079425 10.21517526 5.37144538 12.11433615 6 14 C6.99 14 7.98 14 9 14 C9 15.32 9 16.64 9 18 C11.475 18.99 11.475 18.99 14 20 C13.01 20.66 12.02 21.32 11 22 C0.45259327 12.10343143 0.45259327 12.10343143 -0.125 4.8125 C-0.12948868 3.20779858 -0.10530456 1.60124881 0 0 Z " fill="#6A7CB8" transform="translate(839,394)"/>
<path d="M0 0 C0.66 0 1.32 0 2 0 C3.03013277 1.64821244 4.03114628 3.31503702 5 5 C5.33 5 5.66 5 6 5 C6 10.94 6 16.88 6 23 C2.83510964 18.78014618 2.46991469 17.13009152 1.875 12.0625 C1.37956865 7.99909371 0.86580794 4.00246301 0 0 Z " fill="#B3AADF" transform="translate(770,278)"/>
<path d="M0 0 C3.88728102 5.18304136 3.6902399 8.71704708 3 15 C2.22950199 17.57718299 1.27353063 19.61213008 0 22 C-0.66 22 -1.32 22 -2 22 C-2 20.35 -2 18.7 -2 17 C-1.34 17 -0.68 17 0 17 C0 11.39 0 5.78 0 0 Z " fill="#9470B0" transform="translate(726,183)"/>
<path d="M0 0 C0.66 0 1.32 0 2 0 C0.47940093 3.88014936 -1.86078531 5.73906562 -5.125 8.25 C-6.03507813 8.95640625 -6.94515625 9.6628125 -7.8828125 10.390625 C-8.58148437 10.92171875 -9.28015625 11.4528125 -10 12 C-10.66 11.34 -11.32 10.68 -12 10 C-11.34 9.01 -10.68 8.02 -10 7 C-10.99 6.34 -11.98 5.68 -13 5 C-13 4.34 -13 3.68 -13 3 C-11.68 3 -10.36 3 -9 3 C-9 3.66 -9 4.32 -9 5 C-5.13862539 3.88449178 -2.70478873 2.97526761 0 0 Z " fill="#26568E" transform="translate(821,467)"/>
<path d="M0 0 C9.24 0 18.48 0 28 0 C28 0.33 28 0.66 28 1 C24.62545836 1.33808357 21.25030319 1.66961318 17.875 2 C16.92367187 2.09539063 15.97234375 2.19078125 14.9921875 2.2890625 C10.30899618 2.74437277 5.7123674 3.12693246 1 3 C0.67 2.01 0.34 1.02 0 0 Z " fill="#2A9AD0" transform="translate(698,520)"/>
<path d="M0 0 C1.32 0 2.64 0 4 0 C4 0.66 4 1.32 4 2 C5.32 2.33 6.64 2.66 8 3 C7.375 4.9375 7.375 4.9375 6 7 C2.875 7.75 2.875 7.75 0 8 C0 7.34 0 6.68 0 6 C-0.66 6 -1.32 6 -2 6 C-1.34 4.02 -0.68 2.04 0 0 Z " fill="#104480" transform="translate(802,474)"/>
<path d="M0 0 C1.25103516 0.50660156 1.25103516 0.50660156 2.52734375 1.0234375 C8.98886647 3.58436174 15.16536754 5.72574649 22 7 C22 7.66 22 8.32 22 9 C15.11168659 9.62621031 9.41097745 7.35806067 3 5 C3 4.34 3 3.68 3 3 C2.01 2.67 1.02 2.34 0 2 C0 1.34 0 0.68 0 0 Z " fill="#5FA7D0" transform="translate(701,501)"/>
<path d="M0 0 C1.03253906 0.01353516 1.03253906 0.01353516 2.0859375 0.02734375 C3.76577838 0.05067487 5.44543746 0.08653674 7.125 0.125 C7.125 0.785 7.125 1.445 7.125 2.125 C4.77647472 3.29926264 3.38725935 3.24008173 0.7734375 3.22265625 C-0.07734375 3.21943359 -0.928125 3.21621094 -1.8046875 3.21289062 C-2.69414063 3.20451172 -3.58359375 3.19613281 -4.5 3.1875 C-5.3971875 3.18298828 -6.294375 3.17847656 -7.21875 3.17382812 C-9.43756648 3.16202591 -11.65625018 3.14556155 -13.875 3.125 C-13.875 2.795 -13.875 2.465 -13.875 2.125 C-9.17038677 0.26367327 -4.9992304 -0.1259496 0 0 Z " fill="#134582" transform="translate(736.875,499.875)"/>
<path d="M0 0 C0.66 0.66 1.32 1.32 2 2 C1.154375 2.9075 0.30875 3.815 -0.5625 4.75 C-2.66933528 7.15392344 -2.66933528 7.15392344 -2.9375 10.25 C-2.01136225 12.18156409 -2.01136225 12.18156409 0 14 C-0.99 14.495 -0.99 14.495 -2 15 C-4.625 14.0625 -4.625 14.0625 -7 13 C-7 10.36 -7 7.72 -7 5 C-5.68 5 -4.36 5 -3 5 C-3 3.68 -3 2.36 -3 1 C-2.01 0.67 -1.02 0.34 0 0 Z " fill="#58ADD4" transform="translate(697,485)"/>
<path d="M0 0 C2.28922065 2.79793636 4.42527508 5.62576602 6.4375 8.625 C8.56711891 11.67392645 10.71082579 13.21444829 14 15 C14 15.66 14 16.32 14 17 C13.01 17 12.02 17 11 17 C11 16.34 11 15.68 11 15 C9.68 15 8.36 15 7 15 C7 14.34 7 13.68 7 13 C6.34 13 5.68 13 5 13 C5 12.34 5 11.68 5 11 C4.34 11 3.68 11 3 11 C3 9.68 3 8.36 3 7 C2.34 7 1.68 7 1 7 C0.67 4.69 0.34 2.38 0 0 Z " fill="#459DC5" transform="translate(665,447)"/>
<path d="M0 0 C1.15941038 3.47823115 0.70820884 5.45895578 0 9 C-0.66 9 -1.32 9 -2 9 C-2.33 13.95 -2.66 18.9 -3 24 C-5.71555053 18.56889894 -5.90988367 13.54561121 -4.39453125 7.640625 C-3.30049414 4.59731366 -2.30330196 2.30330196 0 0 Z " fill="#754B9C" transform="translate(554,237)"/>
<path d="M0 0 C3.29159316 -0.05790353 6.58305603 -0.09356261 9.875 -0.125 C10.81214844 -0.14175781 11.74929688 -0.15851562 12.71484375 -0.17578125 C13.61074219 -0.18222656 14.50664063 -0.18867187 15.4296875 -0.1953125 C16.25710449 -0.20578613 17.08452148 -0.21625977 17.93701172 -0.22705078 C20 0 20 0 22 2 C13.76611886 5.29355246 7.85748299 4.36749271 0 1 C0 0.67 0 0.34 0 0 Z " fill="#416899" transform="translate(762,529)"/>
<path d="M0 0 C0.7528125 -0.01417969 1.505625 -0.02835938 2.28125 -0.04296875 C4.74864173 0.21332722 6.36356256 0.95904847 8.5 2.1875 C5.42825222 2.95543694 2.94302486 3.16893416 -0.25 3.0625 C-5.04933711 2.98053789 -9.06440509 4.49899937 -13.5 6.1875 C-14.49 6.5175 -15.48 6.8475 -16.5 7.1875 C-16.5 6.5275 -16.5 5.8675 -16.5 5.1875 C-15.25264433 4.5365741 -14.00198168 3.89198331 -12.75 3.25 C-12.05390625 2.89035156 -11.3578125 2.53070313 -10.640625 2.16015625 C-7.07448898 0.53977693 -3.90342509 0.03341974 0 0 Z " fill="#764F96" transform="translate(679.5,253.8125)"/>
<path d="M0 0 C0.33 1.98 0.66 3.96 1 6 C0.67 5.34 0.34 4.68 0 4 C-1.43931117 4.45261358 -2.87638999 4.91232979 -4.3125 5.375 C-5.11300781 5.63023437 -5.91351562 5.88546875 -6.73828125 6.1484375 C-9.22724528 6.98831811 -9.22724528 6.98831811 -12 9 C-11.74956884 5.61917938 -10.7185873 4.7185873 -8.25 2.25 C-4.98370194 -0.01128327 -3.8309219 -0.56337087 0 0 Z " fill="#496996" transform="translate(851,420)"/>
<path d="M0 0 C0.1875 2.875 0.1875 2.875 0 6 C-0.99 6.66 -1.98 7.32 -3 8 C-3.58348752 10.6556728 -3.58348752 10.6556728 -3.6875 13.625 C-3.78611328 15.12933594 -3.78611328 15.12933594 -3.88671875 16.6640625 C-3.94279297 17.82035156 -3.94279297 17.82035156 -4 19 C-4.66 18.67 -5.32 18.34 -6 18 C-6.35164297 11.52716457 -6.17221678 6.73439187 -3 1 C-1 0 -1 0 0 0 Z " fill="#16477A" transform="translate(756,494)"/>
<path d="M0 0 C5.24990666 1.99496453 8.83001375 4.23684167 13 8 C12.67 9.32 12.34 10.64 12 12 C12 11.34 12 10.68 12 10 C10.68 10 9.36 10 8 10 C8 9.34 8 8.68 8 8 C7.34 8 6.68 8 6 8 C6 7.34 6 6.68 6 6 C5.34 6 4.68 6 4 6 C4 5.01 4 4.02 4 3 C2.68 2.67 1.36 2.34 0 2 C0 1.34 0 0.68 0 0 Z " fill="#52A4CC" transform="translate(636,484)"/>
<path d="M0 0 C2.1640625 0.0234375 2.1640625 0.0234375 4.625 0.375 C5.85089844 0.54128906 5.85089844 0.54128906 7.1015625 0.7109375 C7.72804688 0.80632812 8.35453125 0.90171875 9 1 C8.01 1.495 8.01 1.495 7 2 C7 2.66 7 3.32 7 4 C5.02 4.99 5.02 4.99 3 6 C3 5.34 3 4.68 3 4 C2.34 4 1.68 4 1 4 C1 5.98 1 7.96 1 10 C-1.59482129 7.40517871 -1.69990302 5.60116375 -2 2 C-1.34 1.34 -0.68 0.68 0 0 Z " fill="#5469B6" transform="translate(803,328)"/>
<path d="M0 0 C0.99 0 1.98 0 3 0 C3 5.94 3 11.88 3 18 C2.34 18 1.68 18 1 18 C-0.2039337 14.24600202 -0.09877617 10.66782588 -0.0625 6.75 C-0.05347656 5.48671875 -0.04445313 4.2234375 -0.03515625 2.921875 C-0.02355469 1.95765625 -0.01195312 0.9934375 0 0 Z " fill="#9F78BA" transform="translate(602,320)"/>
<path d="M0 0 C2.4375 0.8125 2.4375 0.8125 5 2 C5.33 2.99 5.66 3.98 6 5 C5.34 5 4.68 5 4 5 C4 4.34 4 3.68 4 3 C2.68 3 1.36 3 0 3 C-1.4807848 5.9615696 -1.35314037 8.83506295 -1.5625 12.125 C-1.64628906 13.40632813 -1.73007812 14.68765625 -1.81640625 16.0078125 C-1.90728516 17.48894531 -1.90728516 17.48894531 -2 19 C-2.33 19 -2.66 19 -3 19 C-4.01112353 14.07077279 -4.73222137 9.01143715 -4 4 C-2 1.4375 -2 1.4375 0 0 Z " fill="#9CA4D2" transform="translate(845,280)"/>
<path d="M0 0 C0.99 0 1.98 0 3 0 C2.34 1.65 1.68 3.3 1 5 C0.34 5 -0.32 5 -1 5 C-0.95875 5.9075 -0.9175 6.815 -0.875 7.75 C-0.99531556 10.8782046 -1.3914708 12.38614006 -3 15 C-2.34 15 -1.68 15 -1 15 C-1 15.66 -1 16.32 -1 17 C-1.99 16.67 -2.98 16.34 -4 16 C-4.34963286 10.17278563 -4.19639756 6.11423609 -1 1 C-0.67 0.67 -0.34 0.34 0 0 Z " fill="#875CAA" transform="translate(685,177)"/>
<path d="M0 0 C3.8820079 3.8820079 4.88937361 6.22435276 5.23046875 11.69921875 C5.21628906 13.01535156 5.20210937 14.33148438 5.1875 15.6875 C5.18685547 16.36361328 5.18621094 17.03972656 5.18554688 17.73632812 C5.1409337 22.7181326 5.1409337 22.7181326 4 25 C3.34 25 2.68 25 2 25 C2.33 24.01 2.66 23.02 3 22 C3.06937062 19.77181559 3.08457084 17.54165476 3.0625 15.3125 C3.04896484 13.54326172 3.04896484 13.54326172 3.03515625 11.73828125 C3.02355469 10.83464844 3.01195312 9.93101562 3 9 C2.34 9 1.68 9 1 9 C0.67 6.03 0.34 3.06 0 0 Z " fill="#255789" transform="translate(793,493)"/>
<path d="M0 0 C7.26 0 14.52 0 22 0 C22.33 0.99 22.66 1.98 23 3 C20.60481764 4.19759118 19.59969593 3.98294941 16.97265625 3.66015625 C16.18052734 3.56669922 15.38839844 3.47324219 14.57226562 3.37695312 C13.74404297 3.27318359 12.91582031 3.16941406 12.0625 3.0625 C10.42855456 2.86448472 8.79444533 2.66781506 7.16015625 2.47265625 C6.43449463 2.38250244 5.70883301 2.29234863 4.96118164 2.19946289 C2.83111591 1.94940825 2.83111591 1.94940825 0 2 C0 1.34 0 0.68 0 0 Z " fill="#7A519C" transform="translate(631,226)"/>
<path d="M0 0 C2 1 2 1 3 3 C-2.15946865 4.7041678 -6.4425333 5.22225605 -11.9375 5.125 C-12.62134766 5.11597656 -13.30519531 5.10695312 -14.00976562 5.09765625 C-15.67333287 5.07438958 -17.33671631 5.03853167 -19 5 C-15.54471009 2.96597466 -12.32409931 2.4679095 -8.375 1.9375 C-4.04134821 1.44601694 -4.04134821 1.44601694 0 0 Z " fill="#8359A4" transform="translate(717,216)"/>
<path d="M0 0 C0 0.33 0 0.66 0 1 C-3.3 1 -6.6 1 -10 1 C-10.33 1.99 -10.66 2.98 -11 4 C-12.79133978 4.05391993 -14.58313899 4.09275571 -16.375 4.125 C-17.37273438 4.14820313 -18.37046875 4.17140625 -19.3984375 4.1953125 C-22 4 -22 4 -24 2 C-15.92437827 0.56205146 -8.2056037 -0.29599372 0 0 Z " fill="#6E3F94" transform="translate(678,200)"/>
<path d="M0 0 C1.98 0.99 1.98 0.99 4 2 C4 3.32 4 4.64 4 6 C4.66 6 5.32 6 6 6 C6 6.66 6 7.32 6 8 C6.66 8 7.32 8 8 8 C9.25664978 10.90600261 10 12.79604584 10 16 C6.21081557 12.42734039 2.44407068 8.64893444 0 4 C0 2.68 0 1.36 0 0 Z " fill="#58A5CC" transform="translate(600,462)"/>
<path d="M0 0 C4.95 0 9.9 0 15 0 C10.61454919 3.28908811 7.9594022 3.52643191 2.75 3.6875 C2.00492188 3.72166016 1.25984375 3.75582031 0.4921875 3.79101562 C-1.33802492 3.87314054 -3.16898669 3.93825653 -5 4 C-5 3.34 -5 2.68 -5 2 C-3.35 2 -1.7 2 0 2 C0 1.34 0 0.68 0 0 Z " fill="#5A2E81" transform="translate(710,264)"/>
<path d="M0 0 C2.31 0.66 4.62 1.32 7 2 C7 2.99 7 3.98 7 5 C4 7 4 7 1.4375 6.75 C-1 6 -1 6 -3 4 C-2.01 2.68 -1.02 1.36 0 0 Z " fill="#5C2D88" transform="translate(727,209)"/>
<path d="M0 0 C1.32 0 2.64 0 4 0 C4 0.66 4 1.32 4 2 C5.32 2 6.64 2 8 2 C8 2.66 8 3.32 8 4 C8.66 4 9.32 4 10 4 C10 4.66 10 5.32 10 6 C11.32 6.33 12.64 6.66 14 7 C7.88225104 7.49940808 4.97504047 6.24900602 0 3 C0 2.01 0 1.02 0 0 Z " fill="#3D96C3" transform="translate(658,508)"/>
<path d="M0 0 C4.24332412 1.74725111 5.36680113 3.85940242 7.25 7.890625 C8.23720136 10.66712882 8.29151293 13.08487068 8 16 C7.34 16.33 6.68 16.66 6 17 C5.67 15.02 5.34 13.04 5 11 C4.67 11 4.34 11 4 11 C4 9.35 4 7.7 4 6 C3.34 6 2.68 6 2 6 C2 4.68 2 3.36 2 2 C1.34 2 0.68 2 0 2 C0 1.34 0 0.68 0 0 Z " fill="#A59DCE" transform="translate(848,238)"/>
<path d="M0 0 C2.30465234 2.96213574 4.27590448 6.02152757 6.1875 9.25 C6.71730469 10.14203125 7.24710938 11.0340625 7.79296875 11.953125 C8.19128906 12.62859375 8.58960938 13.3040625 9 14 C7.68 14.33 6.36 14.66 5 15 C5 13.68 5 12.36 5 11 C4.34 11 3.68 11 3 11 C2.67 10.01 2.34 9.02 2 8 C1.01 7.67 0.02 7.34 -1 7 C-0.67 4.69 -0.34 2.38 0 0 Z " fill="#AACFEC" transform="translate(593,461)"/>
<path d="M0 0 C7.52719602 -0.25515919 14.58851545 0.71702277 22 2 C18.20624973 4.60031988 14.74317457 3.9143278 10.4375 3.25 C9.76525391 3.16234375 9.09300781 3.0746875 8.40039062 2.984375 C4.94323911 2.49000577 2.95264654 1.96843103 0 0 Z " fill="#5FB2D9" transform="translate(681,519)"/>
<path d="M0 0 C0 0.33 0 0.66 0 1 C-0.80824219 1.04898437 -1.61648438 1.09796875 -2.44921875 1.1484375 C-3.51785156 1.22320312 -4.58648438 1.29796875 -5.6875 1.375 C-7.27111328 1.47941406 -7.27111328 1.47941406 -8.88671875 1.5859375 C-11.99800071 1.86692197 -11.99800071 1.86692197 -14.70703125 3.1015625 C-17 4 -17 4 -20 3 C-12.52722585 -0.98671574 -8.40612196 -2.80204065 0 0 Z " fill="#5AA6CA" transform="translate(635,485)"/>
<path d="M0 0 C2 0.3125 2 0.3125 4 1 C4.33 1.66 4.66 2.32 5 3 C3.68 3 2.36 3 1 3 C1 4.32 1 5.64 1 7 C0.34 7 -0.32 7 -1 7 C-1.33 8.65 -1.66 10.3 -2 12 C-2.99 12 -3.98 12 -5 12 C-4.35758106 10.186287 -3.71096881 8.37405876 -3.0625 6.5625 C-2.70285156 5.55316406 -2.34320312 4.54382813 -1.97265625 3.50390625 C-1 1 -1 1 0 0 Z " fill="#3A6195" transform="translate(785,413)"/>
<path d="M0 0 C0.99 0.33 1.98 0.66 3 1 C3 1.66 3 2.32 3 3 C3.66 3 4.32 3 5 3 C4.67 8.28 4.34 13.56 4 19 C1.98996319 14.97992638 1.37917837 11.62230092 0.875 7.25 C0.78863281 6.55261719 0.70226562 5.85523438 0.61328125 5.13671875 C0.40228154 3.42527668 0.20024499 1.71273371 0 0 Z " fill="#B0D1F2" transform="translate(565,381)"/>
<path d="M0 0 C0.66 0.66 1.32 1.32 2 2 C0.93283928 3.20205464 -0.15438337 4.38632333 -1.25 5.5625 C-2.15492188 6.55443359 -2.15492188 6.55443359 -3.078125 7.56640625 C-5 9 -5 9 -7.234375 8.71484375 C-7.81703125 8.47894531 -8.3996875 8.24304688 -9 8 C-8.34 7.34 -7.68 6.68 -7 6 C-7.66 6 -8.32 6 -9 6 C-9 5.34 -9 4.68 -9 4 C-6.35001226 2.58036371 -3.91349184 1.70325665 -1 1 C-0.67 0.67 -0.34 0.34 0 0 Z " fill="#6B3F93" transform="translate(735,255)"/>
<path d="M0 0 C2.0625 -0.4375 2.0625 -0.4375 5 0 C8.61606691 2.83195135 11.53586557 5.60759671 13 10 C12.01 10.33 11.02 10.66 10 11 C8 8 8 8 8 5 C7.34 5 6.68 5 6 5 C6 4.34 6 3.68 6 3 C4.02 3 2.04 3 0 3 C0 2.01 0 1.02 0 0 Z " fill="#8E64B2" transform="translate(714,171)"/>
<path d="M0 0 C0.99 0.66 1.98 1.32 3 2 C1.625 3.5 1.625 3.5 0 5 C-0.66 5 -1.32 5 -2 5 C-2 5.66 -2 6.32 -2 7 C-2.66 7 -3.32 7 -4 7 C-4 7.66 -4 8.32 -4 9 C-4.66 9 -5.32 9 -6 9 C-6 9.66 -6 10.32 -6 11 C-6.66 11 -7.32 11 -8 11 C-7.91433603 8.087425 -7.42089045 6.43201976 -5.375 4.33203125 C-3.61608625 2.83908228 -1.83686981 1.39563738 0 0 Z " fill="#9FC6EB" transform="translate(528,371)"/>
<path d="M0 0 C0.66 0 1.32 0 2 0 C4 2 4 2 4.1953125 3.9453125 C4.13020833 5.96354167 4.06510417 7.98177083 4 10 C3.34 10 2.68 10 2 10 C1.67 8.68 1.34 7.36 1 6 C0.34 6 -0.32 6 -1 6 C-1.33 7.32 -1.66 8.64 -2 10 C-2.6875 7.6875 -2.6875 7.6875 -3 5 C-1.5625 3.3125 -1.5625 3.3125 0 2 C0 1.34 0 0.68 0 0 Z " fill="#6D3A9B" transform="translate(554,256)"/>
<path d="M0 0 C0.33 0 0.66 0 1 0 C1.18451025 10.55808656 1.18451025 10.55808656 0 15 C-1.32 15 -2.64 15 -4 15 C-3.67 11.37 -3.34 7.74 -3 4 C-2.67 4.99 -2.34 5.98 -2 7 C-1.34 7 -0.68 7 0 7 C0 4.69 0 2.38 0 0 Z " fill="#0F457D" transform="translate(796,505)"/>
<path d="M0 0 C0.58007812 0.2165625 1.16015625 0.433125 1.7578125 0.65625 C-0.12378184 1.88663864 -2.02311677 3.08993077 -3.9296875 4.28125 C-4.98542969 4.95414062 -6.04117188 5.62703125 -7.12890625 6.3203125 C-10.2421875 7.65625 -10.2421875 7.65625 -13.07421875 6.9921875 C-15.2421875 5.65625 -15.2421875 5.65625 -16.2421875 3.65625 C-15.4171875 3.924375 -14.5921875 4.1925 -13.7421875 4.46875 C-9.30053767 4.70669553 -7.62374434 3.29373067 -4.171875 0.6875 C-2.2421875 -0.34375 -2.2421875 -0.34375 0 0 Z " fill="#3E6796" transform="translate(805.2421875,481.34375)"/>
<path d="M0 0 C2.31 0 4.62 0 7 0 C6.265611 1.32129824 5.51183106 2.63183171 4.75 3.9375 C4.33234375 4.66839844 3.9146875 5.39929688 3.484375 6.15234375 C1.74406383 8.31857318 0.70438996 8.63594751 -2 9 C-2 8.01 -2 7.02 -2 6 C-1.34 6 -0.68 6 0 6 C0 4.02 0 2.04 0 0 Z " fill="#3A96C5" transform="translate(698,478)"/>
<path d="M0 0 C1.625 1.625 1.625 1.625 3 4 C2.1875 7.25 2.1875 7.25 1 10 C0.01 10 -0.98 10 -2 10 C-3.06351675 6.61608307 -3.21442982 5.4195366 -1.5625 2.1875 C-1.046875 1.465625 -0.53125 0.74375 0 0 Z " fill="#6D7FC6" transform="translate(844,379)"/>
<path d="M0 0 C0.99 0 1.98 0 3 0 C3 1.98 3 3.96 3 6 C3.66 6 4.32 6 5 6 C5.33 5.34 5.66 4.68 6 4 C6.33 5.32 6.66 6.64 7 8 C5.68 8.99 4.36 9.98 3 11 C0.84694043 7.14243493 -0.39253254 4.44870215 0 0 Z " fill="#AFA6E1" transform="translate(807,256)"/>
<path d="M0 0 C1.52519276 0.08937803 3.04681929 0.24537146 4.5625 0.4375 C5.38878906 0.53933594 6.21507812 0.64117187 7.06640625 0.74609375 C7.70449219 0.82988281 8.34257813 0.91367188 9 1 C9 1.66 9 2.32 9 3 C4.46298506 4.45184478 0.81938524 5.23509196 -4 5 C-4 4.34 -4 3.68 -4 3 C-3.01 2.34 -2.02 1.68 -1 1 C-0.67 0.67 -0.34 0.34 0 0 Z " fill="#A476C0" transform="translate(706,212)"/>
<path d="M0 0 C3.63 0 7.26 0 11 0 C11.66 1.98 12.32 3.96 13 6 C12.01 5.67 11.02 5.34 10 5 C10 4.34 10 3.68 10 3 C6.37 3 2.74 3 -1 3 C-0.67 2.01 -0.34 1.02 0 0 Z " fill="#5A2781" transform="translate(668,201)"/>
<path d="M0 0 C1.98 0.99 3.96 1.98 6 3 C6 2.34 6 1.68 6 1 C7.875 0.375 7.875 0.375 10 0 C10.66 0.66 11.32 1.32 12 2 C7.59585492 4.99481865 7.59585492 4.99481865 5 6 C1.5625 5.25 1.5625 5.25 -1 4 C-0.67 2.68 -0.34 1.36 0 0 Z " fill="#0B3B7A" transform="translate(790,481)"/>
<path d="M0 0 C0.33 0 0.66 0 1 0 C1 2.31 1 4.62 1 7 C1.66 7 2.32 7 3 7 C3.33 9.31 3.66 11.62 4 14 C2.02 14.99 2.02 14.99 0 16 C0 10.72 0 5.44 0 0 Z " fill="#5E2F84" transform="translate(551,245)"/>
<path d="M0 0 C0.33 1.32 0.66 2.64 1 4 C1.639375 4.103125 2.27875 4.20625 2.9375 4.3125 C3.618125 4.539375 4.29875 4.76625 5 5 C5.33 5.99 5.66 6.98 6 8 C6.99 8 7.98 8 9 8 C8.67 8.66 8.34 9.32 8 10 C7.34 9.67 6.68 9.34 6 9 C5.67 9.66 5.34 10.32 5 11 C2.36 8.03 -0.28 5.06 -3 2 C-2.01 1.34 -1.02 0.68 0 0 Z " fill="#A296D8" transform="translate(757,216)"/>
<path d="M0 0 C0.99 0 1.98 0 3 0 C1.64147869 3.08693704 0.15489047 5.08641734 -2.375 7.3125 C-2.96023438 7.84488281 -3.54546875 8.37726562 -4.1484375 8.92578125 C-6 10 -6 10 -8.2265625 9.66796875 C-8.81179688 9.44753906 -9.39703125 9.22710938 -10 9 C-8.02 8.01 -6.04 7.02 -4 6 C-4 5.34 -4 4.68 -4 4 C-3.34 4 -2.68 4 -2 4 C-2 3.34 -2 2.68 -2 2 C-1.34 2 -0.68 2 0 2 C0 1.34 0 0.68 0 0 Z " fill="#265389" transform="translate(792,520)"/>
<path d="M0 0 C3.76111234 3.76111234 3.15828768 8.95905836 3.328125 14.01171875 C3.16570313 14.99591797 3.16570313 14.99591797 3 16 C2.01 16.66 1.02 17.32 0 18 C-0.08083491 14.44326383 0.11026172 11.43184765 1 8 C0.67 7.67 0.34 7.34 0 7 C-0.04092937 4.66702567 -0.04241723 2.33294775 0 0 Z " fill="#5469AE" transform="translate(858,307)"/>
<path d="M0 0 C0.3125 2.3125 0.3125 2.3125 0 5 C-2.86103423 7.24243223 -4.34076304 8 -8 8 C-8 7.34 -8 6.68 -8 6 C-7.34 6 -6.68 6 -6 6 C-6 5.34 -6 4.68 -6 4 C-5.34 4 -4.68 4 -4 4 C-3.67 3.01 -3.34 2.02 -3 1 C-1 0 -1 0 0 0 Z " fill="#4192B8" transform="translate(744,512)"/>
<path d="M0 0 C2 3 2 3 3 5.125 C3.85860158 7.17044538 3.85860158 7.17044538 6 8 C6 8.66 6 9.32 6 10 C3.625 10.125 3.625 10.125 1 10 C0.34 9.34 -0.32 8.68 -1 8 C-0.96712417 5.27130593 -0.43602229 2.7033382 0 0 Z " fill="#5D6BB0" transform="translate(805,434)"/>
<path d="M0 0 C2.95839355 -0.02689449 5.91654427 -0.04678741 8.875 -0.0625 C9.71675781 -0.07087891 10.55851563 -0.07925781 11.42578125 -0.08789062 C12.23144531 -0.09111328 13.03710938 -0.09433594 13.8671875 -0.09765625 C14.98262939 -0.10551147 14.98262939 -0.10551147 16.12060547 -0.11352539 C18 0 18 0 20 1 C20.625 3.0625 20.625 3.0625 21 5 C20.34 5 19.68 5 19 5 C19 4.34 19 3.68 19 3 C17.68 3 16.36 3 15 3 C15 2.34 15 1.68 15 1 C10.05 1 5.1 1 0 1 C0 0.67 0 0.34 0 0 Z " fill="#5A68A7" transform="translate(857,371)"/>
<path d="M0 0 C0.66 0 1.32 0 2 0 C0.60846256 4.42761914 -1.52071486 6.9556255 -5 10 C-5.66 10 -6.32 10 -7 10 C-6.34 8.35 -5.68 6.7 -5 5 C-5.66 5 -6.32 5 -7 5 C-6.67 4.34 -6.34 3.68 -6 3 C-4.68 3 -3.36 3 -2 3 C-1.34 2.01 -0.68 1.02 0 0 Z " fill="#9872BB" transform="translate(641,289)"/>
<path d="M0 0 C4.29 0.33 8.58 0.66 13 1 C13 1.33 13 1.66 13 2 C9.7 2 6.4 2 3 2 C3 2.66 3 3.32 3 4 C0.69 4.33 -1.62 4.66 -4 5 C-3.67 3.68 -3.34 2.36 -3 1 C-2.01 1 -1.02 1 0 1 C0 0.67 0 0.34 0 0 Z " fill="#8F66B0" transform="translate(567,280)"/>
<path d="M0 0 C0 0.66 0 1.32 0 2 C1.98 2 3.96 2 6 2 C5.67 2.66 5.34 3.32 5 4 C2.6859378 4.73075648 0.35171131 5.40138258 -2 6 C-2 5.01 -2 4.02 -2 3 C-3.32 2.67 -4.64 2.34 -6 2 C-2.25 0 -2.25 0 0 0 Z " fill="#73439D" transform="translate(626,210)"/>
<path d="M0 0 C0.99386719 0.00902344 1.98773437 0.01804688 3.01171875 0.02734375 C4.15060547 0.04474609 4.15060547 0.04474609 5.3125 0.0625 C5.3125 0.3925 5.3125 0.7225 5.3125 1.0625 C4.24 1.18625 3.1675 1.31 2.0625 1.4375 C-1.52842264 1.84011368 -1.52842264 1.84011368 -3.875 3.1875 C-5.6875 4.0625 -5.6875 4.0625 -7.9375 3.6875 C-8.515 3.48125 -9.0925 3.275 -9.6875 3.0625 C-7.75082354 -0.81085293 -3.83275078 -0.04509119 0 0 Z M-11.6875 4.0625 C-8.6875 5.0625 -8.6875 5.0625 -8.6875 5.0625 Z " fill="#58297F" transform="translate(644.6875,204.9375)"/>
<path d="M0 0 C3.96 0 7.92 0 12 0 C10 2 10 2 8.0546875 2.1953125 C6.03645833 2.13020833 4.01822917 2.06510417 2 2 C2 3.32 2 4.64 2 6 C1.34 6 0.68 6 0 6 C0 4.02 0 2.04 0 0 Z " fill="#2F93C5" transform="translate(596,442)"/>
<path d="M0 0 C0.33 0.99 0.66 1.98 1 3 C-0.09601169 4.00893131 -1.20213918 5.00688225 -2.3125 6 C-3.23482422 6.8353125 -3.23482422 6.8353125 -4.17578125 7.6875 C-6 9 -6 9 -9 9 C-9 8.01 -9 7.02 -9 6 C-8.2575 5.7525 -7.515 5.505 -6.75 5.25 C-3.79875938 3.90852699 -2.15185026 2.39094474 0 0 Z " fill="#A2C3E8" transform="translate(559,406)"/>
<path d="M0 0 C0.33 0 0.66 0 1 0 C1.21192221 5.19209404 0.5912689 9.126739 -1 14 C-1.66 13.67 -2.32 13.34 -3 13 C-3.38281159 7.76824163 -2.21854707 4.62197306 0 0 Z " fill="#8391C4" transform="translate(889,391)"/>
<path d="M0 0 C0 0.66 0 1.32 0 2 C-1.32 2.33 -2.64 2.66 -4 3 C-4 3.66 -4 4.32 -4 5 C-4.99 5.495 -4.99 5.495 -6 6 C-5.34 6.66 -4.68 7.32 -4 8 C-5.8125 8.625 -5.8125 8.625 -8 9 C-8.99 8.34 -9.98 7.68 -11 7 C-9.87720538 6.01830524 -8.75168527 5.03972702 -7.625 4.0625 C-6.68527344 3.24458984 -6.68527344 3.24458984 -5.7265625 2.41015625 C-3.71547429 0.76761588 -2.62199195 0 0 0 Z " fill="#667BC0" transform="translate(856,371)"/>
<path d="M0 0 C0.33 0 0.66 0 1 0 C1.36263859 5.8022175 0.25684543 9.63999211 -2 15 C-3.1171875 13.359375 -3.1171875 13.359375 -4 11 C-3.3203125 8.203125 -3.3203125 8.203125 -2.125 5.25 C-1.73570312 4.26515625 -1.34640625 3.2803125 -0.9453125 2.265625 C-0.63335938 1.51796875 -0.32140625 0.7703125 0 0 Z " fill="#A3C9E9" transform="translate(555,347)"/>
<path d="M0 0 C1.95468059 2.93202088 2.55258673 4.68004563 3.25 8.0625 C3.44078125 8.94035156 3.6315625 9.81820313 3.828125 10.72265625 C3.88484375 11.47417969 3.9415625 12.22570312 4 13 C3.34 13.66 2.68 14.32 2 15 C1.46467177 13.44240657 0.94734622 11.87861955 0.4375 10.3125 C0.14746094 9.44238281 -0.14257812 8.57226562 -0.44140625 7.67578125 C-1.05141961 4.75368926 -0.77703633 2.85599447 0 0 Z " fill="#7E8DBD" transform="translate(859,302)"/>
<path d="M0 0 C0.66 0 1.32 0 2 0 C2 1.32 2 2.64 2 4 C1.34 4 0.68 4 0 4 C-0.0825 4.78375 -0.165 5.5675 -0.25 6.375 C-1 9 -1 9 -3.0625 10.3125 C-4.0215625 10.6528125 -4.0215625 10.6528125 -5 11 C-3.78065514 6.96678237 -2.44045073 3.45730521 0 0 Z " fill="#9D79C0" transform="translate(552,298)"/>
<path d="M0 0 C0.66 0 1.32 0 2 0 C2.33 0.99 2.66 1.98 3 3 C0.79124879 5.19602066 -1.40994275 7.26080867 -4 9 C-6.9375 8.875 -6.9375 8.875 -9 8 C-5.93882432 5.37613513 -5.26826873 5 -1 5 C-0.67 3.35 -0.34 1.7 0 0 Z " fill="#8658A8" transform="translate(721,205)"/>
<path d="M0 0 C-0.886875 0.556875 -1.77375 1.11375 -2.6875 1.6875 C-5.84279378 3.77853792 -8.39868111 6.24566235 -11 9 C-11 4.94654898 -9.41839888 3.1784671 -7 0 C-3.86650268 -1.04449911 -3.01031744 -0.93423645 0 0 Z " fill="#3E6A9B" transform="translate(762,484)"/>
<path d="M0 0 C3.63 0 7.26 0 11 0 C10 2 10 2 7.75 3.125 C4.98386705 4.00513321 2.87951649 4.1645438 0 4 C0 2.68 0 1.36 0 0 Z " fill="#335E94" transform="translate(799,450)"/>
<path d="M0 0 C0.33 0.66 0.66 1.32 1 2 C0.34 2 -0.32 2 -1 2 C-1.33 2.99 -1.66 3.98 -2 5 C-7.28 5 -12.56 5 -18 5 C-18 4.67 -18 4.34 -18 4 C-17.20335937 3.96261719 -16.40671875 3.92523438 -15.5859375 3.88671875 C-9.68223426 3.52043059 -5.03056497 3.21397206 0 0 Z " fill="#2E5D8D" transform="translate(768,439)"/>
<path d="M0 0 C0.99 0 1.98 0 3 0 C2.67 2.97 2.34 5.94 2 9 C0.68 9.33 -0.64 9.66 -2 10 C-2 8.68 -2 7.36 -2 6 C-1.34 6 -0.68 6 0 6 C0 4.02 0 2.04 0 0 Z " fill="#ACA6D7" transform="translate(836,314)"/>
<path d="M0 0 C0.33 0.99 0.66 1.98 1 3 C-1.83556587 4.41778293 -3.9908706 3.86257622 -7.125 3.5625 C-8.22070312 3.46066406 -9.31640625 3.35882813 -10.4453125 3.25390625 C-11.70988281 3.12822266 -11.70988281 3.12822266 -13 3 C-12.67 2.34 -12.34 1.68 -12 1 C-9.78515625 0.5859375 -9.78515625 0.5859375 -7.0625 0.375 C-6.16660156 0.30023438 -5.27070312 0.22546875 -4.34765625 0.1484375 C-2.90048294 0.05693569 -1.45006316 0 0 0 Z " fill="#AEA7DD" transform="translate(752,264)"/>
<path d="M0 0 C0.66 0 1.32 0 2 0 C2 1.32 2 2.64 2 4 C2.66 4 3.32 4 4 4 C4 4.66 4 5.32 4 6 C2.25 6.75 2.25 6.75 0 7 C-2.25 5.0625 -2.25 5.0625 -4 3 C-3.34 3 -2.68 3 -2 3 C-1.67 2.34 -1.34 1.68 -1 1 C-0.67 0.67 -0.34 0.34 0 0 Z " fill="#084285" transform="translate(764,522)"/>
<path d="M0 0 C0.99 0 1.98 0 3 0 C3 0.66 3 1.32 3 2 C3.66 2 4.32 2 5 2 C5 3.32 5 4.64 5 6 C5.66 6 6.32 6 7 6 C7 6.99 7 7.98 7 9 C4.50776013 8.00310405 3.23583098 7.38477686 1.8125 5.0625 C1.15554392 3.39484226 0.56680452 1.70041355 0 0 Z " fill="#4496C1" transform="translate(609,474)"/>
<path d="M0 0 C0.66 0.33 1.32 0.66 2 1 C0.4169423 5.2742558 -2.50568404 7.26531794 -6 10 C-6 9.01 -6 8.02 -6 7 C-5.01 6.67 -4.02 6.34 -3 6 C-3 4.68 -3 3.36 -3 2 C-2.01 1.34 -1.02 0.68 0 0 Z " fill="#1C497A" transform="translate(829,458)"/>
<path d="M0 0 C0.66 0 1.32 0 2 0 C2 1.32 2 2.64 2 4 C1.34 4 0.68 4 0 4 C0 4.66 0 5.32 0 6 C-0.66 6 -1.32 6 -2 6 C-2 6.66 -2 7.32 -2 8 C-3.32 8 -4.64 8 -6 8 C-6 7.34 -6 6.68 -6 6 C-5.34 6 -4.68 6 -4 6 C-4 5.34 -4 4.68 -4 4 C-3.34 4 -2.68 4 -2 4 C-2 3.34 -2 2.68 -2 2 C-1.34 2 -0.68 2 0 2 C0 1.34 0 0.68 0 0 Z " fill="#8DC0F8" transform="translate(526,376)"/>
<path d="M0 0 C3.26008643 3.16952847 6.22237877 6.39937989 9 10 C6 10 6 10 4 9 C4 8.34 4 7.68 4 7 C3.34 7 2.68 7 2 7 C2 5.68 2 4.36 2 3 C1.34 3 0.68 3 0 3 C0 2.01 0 1.02 0 0 Z " fill="#B2CAED" transform="translate(574,327)"/>
<path d="M0 0 C0 0.33 0 0.66 0 1 C-2.45779976 1.22126178 -4.91527648 1.42750395 -7.375 1.625 C-8.42300781 1.72167969 -8.42300781 1.72167969 -9.4921875 1.8203125 C-11.32369111 1.96119739 -13.16312748 1.98761659 -15 2 C-15.66 1.34 -16.32 0.68 -17 0 C-12.2418865 -2.37905675 -5.00367323 -1.33431286 0 0 Z " fill="#C0B4E9" transform="translate(751,198)"/>
<path d="M0 0 C0.33 0.66 0.66 1.32 1 2 C1.66 2 2.32 2 3 2 C3.042721 3.66611905 3.04063832 5.33382885 3 7 C2 8 2 8 -0.4375 8.25 C-1.283125 8.1675 -2.12875 8.085 -3 8 C-3.66 7.01 -4.32 6.02 -5 5 C-3.35 5 -1.7 5 0 5 C0 3.35 0 1.7 0 0 Z " fill="#98BDDE" transform="translate(604,481)"/>
<path d="M0 0 C0.66 0 1.32 0 2 0 C2.66 1.32 3.32 2.64 4 4 C4.66 4 5.32 4 6 4 C6 5.65 6 7.3 6 9 C5.01 9.495 5.01 9.495 4 10 C2.35 7.03 0.7 4.06 -1 1 C-0.67 0.67 -0.34 0.34 0 0 Z " fill="#7081C1" transform="translate(790,406)"/>
<path d="M0 0 C0.99 0.33 1.98 0.66 3 1 C4.25 7.625 4.25 7.625 2 11 C1.34 11 0.68 11 0 11 C0.33 8.36 0.66 5.72 1 3 C0.34 2.67 -0.32 2.34 -1 2 C-0.67 1.34 -0.34 0.68 0 0 Z " fill="#6E80BD" transform="translate(883,399)"/>
<path d="M0 0 C0.66 0.33 1.32 0.66 2 1 C0.33333333 4.33333333 -1.33333333 7.66666667 -3 11 C-3.33 11 -3.66 11 -4 11 C-3.91291331 9.54054712 -3.80473093 8.08234132 -3.6875 6.625 C-3.62949219 5.81289063 -3.57148437 5.00078125 -3.51171875 4.1640625 C-3 2 -3 2 0 0 Z " fill="#7A8BC2" transform="translate(843,372)"/>
<path d="M0 0 C0 0.33 0 0.66 0 1 C-1.7015625 1.433125 -1.7015625 1.433125 -3.4375 1.875 C-4.613125 2.24625 -5.78875 2.6175 -7 3 C-7.33 3.66 -7.66 4.32 -8 5 C-9.98 5 -11.96 5 -14 5 C-13.34 4.67 -12.68 4.34 -12 4 C-12 3.34 -12 2.68 -12 2 C-7.8794254 0.00214565 -4.54805635 -0.17835515 0 0 Z " fill="#8A5FAA" transform="translate(630,300)"/>
<path d="M0 0 C0.66 0.33 1.32 0.66 2 1 C2 1.66 2 2.32 2 3 C1.34 3 0.68 3 0 3 C0 3.66 0 4.32 0 5 C0.99 5.33 1.98 5.66 3 6 C0.36 6 -2.28 6 -5 6 C-5 4.35 -5 2.7 -5 1 C-4.01 1.33 -3.02 1.66 -2 2 C-1.67 1.67 -1.34 1.34 -1 1 C-0.67 0.67 -0.34 0.34 0 0 Z " fill="#5D2C85" transform="translate(576,271)"/>
<path d="M0 0 C0.33 0.99 0.66 1.98 1 3 C-1.97 5.31 -4.94 7.62 -8 10 C-8.66 9.67 -9.32 9.34 -10 9 C-10 8.34 -10 7.68 -10 7 C-9.01 7 -8.02 7 -7 7 C-7 6.34 -7 5.68 -7 5 C-5.35666496 3.96210419 -3.68756133 2.96432076 -2 2 C-1.34 1.34 -0.68 0.68 0 0 Z " fill="#6A4189" transform="translate(660,261)"/>
<path d="M0 0 C1.4540625 0.0309375 1.4540625 0.0309375 2.9375 0.0625 C2.9375 0.7225 2.9375 1.3825 2.9375 2.0625 C4.9175 2.0625 6.8975 2.0625 8.9375 2.0625 C8.9375 2.3925 8.9375 2.7225 8.9375 3.0625 C2.9975 3.5575 2.9975 3.5575 -3.0625 4.0625 C-3.3925 3.0725 -3.7225 2.0825 -4.0625 1.0625 C-3.0625 0.0625 -3.0625 0.0625 0 0 Z " fill="#8756AA" transform="translate(701.0625,211.9375)"/>
<path d="M0 0 C0.33 0 0.66 0 1 0 C1.12375 0.804375 1.2475 1.60875 1.375 2.4375 C1.58125 3.283125 1.7875 4.12875 2 5 C2.66 5.33 3.32 5.66 4 6 C3.67 8.97 3.34 11.94 3 15 C-0.25195722 10.12206417 -0.11325659 5.77608621 0 0 Z " fill="#9A6CB9" transform="translate(680,188)"/>
<path d="M0 0 C7.63076923 1.47692308 7.63076923 1.47692308 9.5 4.125 C9.665 4.74375 9.83 5.3625 10 6 C7.23723823 5.47731534 4.6739124 4.89130413 2 4 C2 3.34 2 2.68 2 2 C1.34 2 0.68 2 0 2 C0 1.34 0 0.68 0 0 Z " fill="#3594C6" transform="translate(692,498)"/>
<path d="M0 0 C4.95 0.33 9.9 0.66 15 1 C15 1.33 15 1.66 15 2 C11.04 2 7.08 2 3 2 C2.67 2.66 2.34 3.32 2 4 C1.01 3.67 0.02 3.34 -1 3 C-0.67 2.01 -0.34 1.02 0 0 Z " fill="#845BA8" transform="translate(697,168)"/>
<path d="M0 0 C0.66 0 1.32 0 2 0 C3.45184478 4.53701494 4.23509196 8.18061476 4 13 C3.01 12.34 2.02 11.68 1 11 C0.48828125 8.3984375 0.48828125 8.3984375 0.3125 5.375 C0.24675781 4.37210937 0.18101562 3.36921875 0.11328125 2.3359375 C0.07589844 1.56507813 0.03851562 0.79421875 0 0 Z " fill="#8A9ACE" transform="translate(839,394)"/>
<path d="M0 0 C3.5742977 0.32493615 5.55712453 0.63870686 8.375 2.9375 C10 5 10 5 10 7 C9.01 7.33 8.02 7.66 7 8 C5.76302083 6.50260417 4.52604167 5.00520833 3.2890625 3.5078125 C2.24749008 2.28948839 1.13339903 1.13339903 0 0 Z " fill="#B0CFF0" transform="translate(556,371)"/>
<path d="M0 0 C2.31 0.33 4.62 0.66 7 1 C6.814375 1.5775 6.62875 2.155 6.4375 2.75 C5.95976454 5.20692525 6.24270636 6.64397534 7 9 C6.34 9 5.68 9 5 9 C3.7109375 7.5390625 3.7109375 7.5390625 2.375 5.625 C1.92898438 4.99851562 1.48296875 4.37203125 1.0234375 3.7265625 C0 2 0 2 0 0 Z " fill="#7785C2" transform="translate(796,327)"/>
<path d="M0 0 C1.485 0.99 1.485 0.99 3 2 C3.99 1.34 4.98 0.68 6 0 C6.99 0.33 7.98 0.66 9 1 C7.87926138 1.83905565 6.75325453 2.67107831 5.625 3.5 C4.99851562 3.9640625 4.37203125 4.428125 3.7265625 4.90625 C2 6 2 6 0 6 C0 4.02 0 2.04 0 0 Z " fill="#764F9B" transform="translate(744,243)"/>
<path d="M0 0 C0.99 0.33 1.98 0.66 3 1 C2.21654285 2.17219543 1.42297164 3.33763668 0.625 4.5 C0.18414063 5.1496875 -0.25671875 5.799375 -0.7109375 6.46875 C-1.13632812 6.9740625 -1.56171875 7.479375 -2 8 C-2.66 8 -3.32 8 -4 8 C-3.67 6.35 -3.34 4.7 -3 3 C-2.01 2.67 -1.02 2.34 0 2 C0 1.34 0 0.68 0 0 Z " fill="#315C8F" transform="translate(836,450)"/>
<path d="M0 0 C-0.33 0.66 -0.66 1.32 -1 2 C-4.63 2 -8.26 2 -12 2 C-8.63758153 -1.36241847 -4.39594827 -1.5216744 0 0 Z " fill="#3695D2" transform="translate(618,442)"/>
<path d="M0 0 C0.66 0.33 1.32 0.66 2 1 C2.4140625 3.06640625 2.4140625 3.06640625 2.625 5.5625 C2.69976563 6.38878906 2.77453125 7.21507812 2.8515625 8.06640625 C2.92503906 9.02353516 2.92503906 9.02353516 3 10 C3.66 10 4.32 10 5 10 C4.67 10.99 4.34 11.98 4 13 C0.65782155 9.35398714 -0.06614818 5.7470801 -1 1 C-0.67 0.67 -0.34 0.34 0 0 Z " fill="#ACCFED" transform="translate(560,431)"/>
<path d="M0 0 C-5.23420787 3.27137992 -8.16605611 3.10643764 -14 2 C-14 1.67 -14 1.34 -14 1 C-12.41913952 0.63495397 -10.83516093 0.28339494 -9.25 -0.0625 C-8.36828125 -0.25972656 -7.4865625 -0.45695312 -6.578125 -0.66015625 C-4.01320972 -0.99825872 -2.42908361 -0.81158635 0 0 Z " fill="#7585C2" transform="translate(878,416)"/>
<path d="M0 0 C0.66 0.99 1.32 1.98 2 3 C-0.97 3 -3.94 3 -7 3 C-7 2.01 -7 1.02 -7 0 C-4.27584084 -1.36207958 -2.87220643 -0.86166193 0 0 Z " fill="#6875B1" transform="translate(819,329)"/>
<path d="M0 0 C0.66 0.66 1.32 1.32 2 2 C1.01 3.485 1.01 3.485 0 5 C-2.3431213 4.74438677 -4.67843403 4.40729228 -7 4 C-7.33 3.34 -7.66 2.68 -8 2 C-6.8553125 2.061875 -6.8553125 2.061875 -5.6875 2.125 C-2.77281584 2.22080824 -2.77281584 2.22080824 0 0 Z " fill="#B4AED7" transform="translate(835,325)"/>
<path d="M0 0 C2.97 0.33 5.94 0.66 9 1 C9.33 2.65 9.66 4.3 10 6 C9.34 6 8.68 6 8 6 C8 5.34 8 4.68 8 4 C5.36 3.34 2.72 2.68 0 2 C0 1.34 0 0.68 0 0 Z " fill="#ACA3D9" transform="translate(824,282)"/>
<path d="M0 0 C0.66 0 1.32 0 2 0 C1.71905418 1.8141927 1.42493567 3.62635001 1.125 5.4375 C0.88136719 6.95150391 0.88136719 6.95150391 0.6328125 8.49609375 C0.42398438 9.32238281 0.21515625 10.14867187 0 11 C-0.99 11.495 -0.99 11.495 -2 12 C-3.15957207 8.52128379 -2.77456651 7.65780355 -1.5625 4.3125 C-1.13130859 3.10013672 -1.13130859 3.10013672 -0.69140625 1.86328125 C-0.46324219 1.24839844 -0.23507812 0.63351563 0 0 Z " fill="#7E54A0" transform="translate(656,229)"/>
<path d="M0 0 C3.3 1.65 6.6 3.3 10 5 C7 7 7 7 4 7 C3.67 6.01 3.34 5.02 3 4 C2.01 3.67 1.02 3.34 0 3 C0 2.01 0 1.02 0 0 Z " fill="#6E3A95" transform="translate(686,213)"/>
<path d="M0 0 C5.28137429 0.51525603 8.57221156 2.25477117 13 5 C13 5.66 13 6.32 13 7 C10.03 6.505 10.03 6.505 7 6 C7 5.01 7 4.02 7 3 C4.69 2.34 2.38 1.68 0 1 C0 0.67 0 0.34 0 0 Z " fill="#8568A7" transform="translate(727,208)"/>
<path d="M0 0 C0.98726527 2.66561622 1.0275526 3.90126985 0.25 6.6875 C-1 9 -1 9 -4 10 C-3.67 9.01 -3.34 8.02 -3 7 C-2.67 5.96875 -2.34 4.9375 -2 3.875 C-1 1 -1 1 0 0 Z " fill="#103F79" transform="translate(750,488)"/>
<path d="M0 0 C2.46800047 1.15173355 4.04783565 2.04783565 6 4 C5.625 6.125 5.625 6.125 5 8 C5 7.34 5 6.68 5 6 C4.34 6 3.68 6 3 6 C3 5.34 3 4.68 3 4 C2.01 4 1.02 4 0 4 C-0.33 3.01 -0.66 2.02 -1 1 C-0.67 0.67 -0.34 0.34 0 0 Z " fill="#184780" transform="translate(787,488)"/>
<path d="M0 0 C0.66 0.66 1.32 1.32 2 2 C0.38405168 4.04119788 -1.2856382 6.04072937 -3 8 C-3.66 8 -4.32 8 -5 8 C-5 7.01 -5 6.02 -5 5 C-4.34 5 -3.68 5 -3 5 C-3 3.68 -3 2.36 -3 1 C-2.01 0.67 -1.02 0.34 0 0 Z " fill="#5FA6CC" transform="translate(697,485)"/>
<path d="M0 0 C0 0.66 0 1.32 0 2 C-1.62324086 2.22162329 -3.248721 2.42689803 -4.875 2.625 C-6.23238281 2.79902344 -6.23238281 2.79902344 -7.6171875 2.9765625 C-8.40351562 2.98429687 -9.18984375 2.99203125 -10 3 C-10.66 2.34 -11.32 1.68 -12 1 C-10.56496445 0.63597631 -9.12683494 0.28413409 -7.6875 -0.0625 C-6.88699219 -0.25972656 -6.08648438 -0.45695312 -5.26171875 -0.66015625 C-3 -1 -3 -1 0 0 Z " fill="#5CA9D4" transform="translate(624,438)"/>
<path d="M0 0 C0.33 0.99 0.66 1.98 1 3 C0.34 3 -0.32 3 -1 3 C-1 3.66 -1 4.32 -1 5 C-1.66 5 -2.32 5 -3 5 C-3.66 6.32 -4.32 7.64 -5 9 C-5.99 8.67 -6.98 8.34 -8 8 C-7.04578192 6.85073734 -6.08647955 5.70569459 -5.125 4.5625 C-4.59132813 3.92441406 -4.05765625 3.28632813 -3.5078125 2.62890625 C-2 1 -2 1 0 0 Z " fill="#34618C" transform="translate(781,427)"/>
<path d="M0 0 C0.33 0 0.66 0 1 0 C1.22036864 3.85645121 0.60355101 6.49223216 -1 10 C-2.65 9.67 -4.3 9.34 -6 9 C-4.68 8.67 -3.36 8.34 -2 8 C-2 6.02 -2 4.04 -2 2 C-1.34 2 -0.68 2 0 2 C0 1.34 0 0.68 0 0 Z " fill="#606FAA" transform="translate(860,358)"/>
<path d="M0 0 C4.56454251 0.54339792 7.9728176 1.79463821 12 4 C12 4.33 12 4.66 12 5 C6.45378151 5.3697479 6.45378151 5.3697479 4.3125 3.625 C3.879375 3.08875 3.44625 2.5525 3 2 C2.01 1.34 1.02 0.68 0 0 Z " fill="#727EBC" transform="translate(818,330)"/>
<path d="M0 0 C0.99 0.33 1.98 0.66 3 1 C1.12050295 4.57104439 -0.17053157 6.54744301 -4 8 C-4 7.34 -4 6.68 -4 6 C-3.34 6 -2.68 6 -2 6 C-2 4.68 -2 3.36 -2 2 C-1.34 2 -0.68 2 0 2 C0 1.34 0 0.68 0 0 Z " fill="#8B56C0" transform="translate(556,296)"/>
<path d="M0 0 C0.66 0 1.32 0 2 0 C2.33 2.97 2.66 5.94 3 9 C2.01 9.495 2.01 9.495 1 10 C1 9.01 1 8.02 1 7 C0.34 6.67 -0.32 6.34 -1 6 C-0.67 4.02 -0.34 2.04 0 0 Z " fill="#B7AEE2" transform="translate(803,259)"/>
<path d="M0 0 C0.66 0 1.32 0 2 0 C2 2.97 2 5.94 2 9 C1.01 9.495 1.01 9.495 0 10 C0 9.34 0 8.68 0 8 C-0.66 8 -1.32 8 -2 8 C-2 7.34 -2 6.68 -2 6 C-1.34 6 -0.68 6 0 6 C0 4.02 0 2.04 0 0 Z " fill="#A394E9" transform="translate(810,248)"/>
<path d="M0 0 C2 1.625 2 1.625 4 4 C4.25 7.25 4.25 7.25 4 10 C3.01 10.495 3.01 10.495 2 11 C2 9.02 2 7.04 2 5 C1.34 5 0.68 5 0 5 C0 3.35 0 1.7 0 0 Z " fill="#684C88" transform="translate(758,229)"/>
<path d="M0 0 C-3.08888522 2.05925681 -3.70935927 2.2390374 -7.1875 2.125 C-9.0746875 2.063125 -9.0746875 2.063125 -11 2 C-10.67 1.01 -10.34 0.02 -10 -1 C-5.92224809 -1.9267618 -3.57818963 -2.33958553 0 0 Z " fill="#5A2C83" transform="translate(619,229)"/>
<path d="M0 0 C0.33 0 0.66 0 1 0 C1 1.65 1 3.3 1 5 C-0.98 5.99 -0.98 5.99 -3 7 C-3 7.66 -3 8.32 -3 9 C-3.99 9 -4.98 9 -6 9 C-4.87952194 5.63856582 -3.50292817 4.42471166 -1 2 C-0.67 1.34 -0.34 0.68 0 0 Z " fill="#875FB1" transform="translate(559,289)"/>
<path d="M0 0 C0.33 0.99 0.66 1.98 1 3 C0.34 3 -0.32 3 -1 3 C-1 4.32 -1 5.64 -1 7 C-2.65 7 -4.3 7 -6 7 C-5.25 5.0625 -5.25 5.0625 -4 3 C-1.875 2.25 -1.875 2.25 0 2 C0 1.34 0 0.68 0 0 Z " fill="#8D64AB" transform="translate(597,269)"/>
<path d="M0 0 C2 2 2 2 2 6 C-0.31 6.33 -2.62 6.66 -5 7 C-5 6.34 -5 5.68 -5 5 C-3.35 4.67 -1.7 4.34 0 4 C-0.33 3.01 -0.66 2.02 -1 1 C-0.67 0.67 -0.34 0.34 0 0 Z " fill="#B8AFE1" transform="translate(770,238)"/>
<path d="M0 0 C2.1875 1.3125 2.1875 1.3125 4 3 C4 3.66 4 4.32 4 5 C1.69 4.67 -0.62 4.34 -3 4 C-3 3.01 -3 2.02 -3 1 C-2.01 0.67 -1.02 0.34 0 0 Z " fill="#B8B1E0" transform="translate(803,235)"/>
<path d="M0 0 C0.99 0 1.98 0 3 0 C3 0.66 3 1.32 3 2 C4.32 2 5.64 2 7 2 C7 2.66 7 3.32 7 4 C7.99 4.33 8.98 4.66 10 5 C8.35 5.33 6.7 5.66 5 6 C3.35 4.02 1.7 2.04 0 0 Z " fill="#A1C5E4" transform="translate(589,480)"/>
<path d="M0 0 C2.40072955 2.88087546 4.47291037 5.56404834 6 9 C5.01 9 4.02 9 3 9 C3 8.34 3 7.68 3 7 C2.34 7 1.68 7 1 7 C0.67 4.69 0.34 2.38 0 0 Z " fill="#63B0D5" transform="translate(665,447)"/>
<path d="M0 0 C1.32 0.33 2.64 0.66 4 1 C2.25 5.875 2.25 5.875 0 7 C0 6.01 0 5.02 0 4 C-0.66 4 -1.32 4 -2 4 C-2 3.34 -2 2.68 -2 2 C-1.34 2 -0.68 2 0 2 C0 1.34 0 0.68 0 0 Z " fill="#124A82" transform="translate(838,444)"/>
<path d="M0 0 C0.66 0 1.32 0 2 0 C2 1.65 2 3.3 2 5 C-0.31 4.67 -2.62 4.34 -5 4 C-5 3.34 -5 2.68 -5 2 C-2.525 2.495 -2.525 2.495 0 3 C0 2.01 0 1.02 0 0 Z " fill="#9F85BA" transform="translate(604,340)"/>
<path d="M0 0 C0.99 0.33 1.98 0.66 3 1 C1.7508258 4.45925163 0.32472205 7.14693203 -2 10 C-1.46274105 6.62294375 -0.88935377 3.303314 0 0 Z " fill="#9E80BE" transform="translate(556,327)"/>
<path d="M0 0 C0.66 0.66 1.32 1.32 2 2 C0.35 3.65 -1.3 5.3 -3 7 C-3.33 5.35 -3.66 3.7 -4 2 C-2.68 1.34 -1.36 0.68 0 0 Z " fill="#9971B9" transform="translate(562,322)"/>
<path d="M0 0 C1.4589426 0.47730838 2.91713496 0.95691042 4.375 1.4375 C5.18710937 1.70433594 5.99921875 1.97117188 6.8359375 2.24609375 C9 3 9 3 11 4 C11 4.66 11 5.32 11 6 C8.0625 5.625 8.0625 5.625 5 5 C4.67 4.34 4.34 3.68 4 3 C1.97536745 2.34786708 1.97536745 2.34786708 0 2 C0 1.34 0 0.68 0 0 Z " fill="#7A51A1" transform="translate(577,227)"/>
<path d="M0 0 C0.66 0 1.32 0 2 0 C2.33 2.31 2.66 4.62 3 7 C1.02 6.34 -0.96 5.68 -3 5 C-1.625 2.5 -1.625 2.5 0 0 Z " fill="#58297F" transform="translate(727,209)"/>
<path d="M0 0 C0.33 0 0.66 0 1 0 C1.02696365 1.79158489 1.04637917 3.58328473 1.0625 5.375 C1.07410156 6.37273437 1.08570313 7.37046875 1.09765625 8.3984375 C1 11 1 11 0 13 C-0.66 13 -1.32 13 -2 13 C-2 11.35 -2 9.7 -2 8 C-1.34 8 -0.68 8 0 8 C0 5.36 0 2.72 0 0 Z " fill="#8964A6" transform="translate(726,192)"/>
<path d="M0 0 C0.66 0.33 1.32 0.66 2 1 C1.67 1.99 1.34 2.98 1 4 C-0.98 4.33 -2.96 4.66 -5 5 C-5 4.34 -5 3.68 -5 3 C-4.34 3 -3.68 3 -3 3 C-3 2.34 -3 1.68 -3 1 C-2.01 0.67 -1.02 0.34 0 0 Z " fill="#315B88" transform="translate(747,499)"/>
<path d="M0 0 C-1.38009621 3.33523252 -2.84950652 5.18607951 -6 7 C-6.99 6.67 -7.98 6.34 -9 6 C-7.8803014 4.99406757 -6.7540588 3.9954151 -5.625 3 C-4.68527344 2.1646875 -4.68527344 2.1646875 -3.7265625 1.3125 C-2 0 -2 0 0 0 Z " fill="#2F5F91" transform="translate(823,467)"/>
<path d="M0 0 C0.66 0 1.32 0 2 0 C2 0.66 2 1.32 2 2 C2.66 2 3.32 2 4 2 C4 2.66 4 3.32 4 4 C4.66 4 5.32 4 6 4 C6 4.66 6 5.32 6 6 C4.68 6 3.36 6 2 6 C2 5.34 2 4.68 2 4 C1.34 4 0.68 4 0 4 C0 2.68 0 1.36 0 0 Z " fill="#1F9ADC" transform="translate(658,444)"/>
<path d="M0 0 C0.66 0 1.32 0 2 0 C1.34 3.63 0.68 7.26 0 11 C-0.33 11 -0.66 11 -1 11 C-1.02688151 9.35425434 -1.04634123 7.70838587 -1.0625 6.0625 C-1.07410156 5.14597656 -1.08570313 4.22945313 -1.09765625 3.28515625 C-1 1 -1 1 0 0 Z " fill="#6AADCA" transform="translate(595,440)"/>
<path d="M0 0 C0.99 0 1.98 0 3 0 C1.90931332 3.77545388 1.0916909 6.47043472 -2 9 C-1.41196203 5.97580475 -0.77321882 2.98241547 0 0 Z " fill="#093F79" transform="translate(844,434)"/>
<path d="M0 0 C0.33 0 0.66 0 1 0 C1.33 2.64 1.66 5.28 2 8 C0.02 8.66 -1.96 9.32 -4 10 C-2.68 6.7 -1.36 3.4 0 0 Z " fill="#B4D4F5" transform="translate(566,400)"/>
<path d="M0 0 C2.17854707 3.2678206 3.49760034 6.38058265 5 10 C3.68 9.67 2.36 9.34 1 9 C0.67 6.03 0.34 3.06 0 0 Z " fill="#8C99CA" transform="translate(837,399)"/>
<path d="M0 0 C0.33 0 0.66 0 1 0 C1.33 3.63 1.66 7.26 2 11 C-2 6.375 -2 6.375 -2 3 C-1.34 3 -0.68 3 0 3 C0 2.01 0 1.02 0 0 Z " fill="#6172B6" transform="translate(836,397)"/>
<path d="M0 0 C1.65 0 3.3 0 5 0 C5.66 1.65 6.32 3.3 7 5 C6.01 5.33 5.02 5.66 4 6 C3.67 5.01 3.34 4.02 3 3 C1.50014391 1.33289654 1.50014391 1.33289654 0 0 Z " fill="#9D92DA" transform="translate(817,272)"/>
<path d="M0 0 C-0.99 0.495 -0.99 0.495 -2 1 C-2.65213292 3.02463255 -2.65213292 3.02463255 -3 5 C-3.66 4.67 -4.32 4.34 -5 4 C-5.99 4 -6.98 4 -8 4 C-8 3.34 -8 2.68 -8 2 C-4.77208445 -0.1519437 -3.71599191 -0.20086443 0 0 Z " fill="#6B4394" transform="translate(616,217)"/>
<path d="M0 0 C4.16138263 -0.08159574 7.9472484 0.01751476 12 1 C9.56644121 2.53224072 8.34278436 3.03344238 5.4375 2.75 C3 2 3 2 0 0 Z " fill="#4FA8CD" transform="translate(691,520)"/>
<path d="M0 0 C2.50037734 2.17424117 3.43628586 3.73045798 4 7 C2.35 6.67 0.7 6.34 -1 6 C-0.67 4.02 -0.34 2.04 0 0 Z " fill="#3A98C8" transform="translate(649,494)"/>
<path d="M0 0 C0.33 0.99 0.66 1.98 1 3 C-3.75 5.875 -3.75 5.875 -6 7 C-5.37162381 3.35541809 -4.14650034 0 0 0 Z " fill="#36609A" transform="translate(845,422)"/>
<path d="M0 0 C0.66 0 1.32 0 2 0 C1.67 2.31 1.34 4.62 1 7 C1.66 7.33 2.32 7.66 3 8 C2.01 8.33 1.02 8.66 0 9 C-0.87890625 2.84765625 -0.87890625 2.84765625 -1 1 C-0.67 0.67 -0.34 0.34 0 0 Z " fill="#BBD6EF" transform="translate(556,415)"/>
<path d="M0 0 C-3.22515763 1.73662334 -6.51329166 2.8905928 -10 4 C-9.625 2.0625 -9.625 2.0625 -9 0 C-5.93109813 -1.53445094 -3.29905734 -0.54984289 0 0 Z " fill="#96BFE5" transform="translate(538,371)"/>
<path d="M0 0 C1.8125 1.3125 1.8125 1.3125 2.8125 4.3125 C1.8225 4.3125 0.8325 4.3125 -0.1875 4.3125 C-0.1875 3.6525 -0.1875 2.9925 -0.1875 2.3125 C-3.1575 1.8175 -3.1575 1.8175 -6.1875 1.3125 C-2.78451493 -0.87513326 -2.78451493 -0.87513326 0 0 Z " fill="#AACBEA" transform="translate(550.1875,369.6875)"/>
<path d="M0 0 C0 0.99 0 1.98 0 3 C-1.96466413 4.06775224 -3.96855359 5.06553465 -6 6 C-6.66 5.67 -7.32 5.34 -8 5 C-5.31158141 2.74754119 -3.35358125 1.11786042 0 0 Z " fill="#572D80" transform="translate(611,219)"/>
<path d="M0 0 C1.8125 0.1875 1.8125 0.1875 4 1 C5.75 3.5625 5.75 3.5625 7 6 C6.01 6.33 5.02 6.66 4 7 C2 4 2 4 2 1 C1.34 0.67 0.68 0.34 0 0 Z " fill="#855DA8" transform="translate(720,175)"/>
<path d="M0 0 C0.75 1.75 0.75 1.75 1 4 C-0.9375 6.25 -0.9375 6.25 -3 8 C-3.33 6.68 -3.66 5.36 -4 4 C-3.34 4 -2.68 4 -2 4 C-2 3.34 -2 2.68 -2 2 C-1.34 2 -0.68 2 0 2 C0 1.34 0 0.68 0 0 Z " fill="#54A1C6" transform="translate(650,518)"/>
<path d="M0 0 C3 1 3 1 5 4 C3.35 4.33 1.7 4.66 0 5 C-0.5625 3.0625 -0.5625 3.0625 -1 1 C-0.67 0.67 -0.34 0.34 0 0 Z " fill="#0A4278" transform="translate(706,494)"/>
<path d="M0 0 C1.32 0.33 2.64 0.66 4 1 C4 1.66 4 2.32 4 3 C4.66 3 5.32 3 6 3 C6.33 3.99 6.66 4.98 7 6 C6.01 6.495 6.01 6.495 5 7 C5 6.34 5 5.68 5 5 C4.34 5 3.68 5 3 5 C1.375 3.625 1.375 3.625 0 2 C0 1.34 0 0.68 0 0 Z " fill="#54A7D4" transform="translate(646,485)"/>
<path d="M0 0 C0.33 0.66 0.66 1.32 1 2 C0.67 2.99 0.34 3.98 0 5 C-0.66 5 -1.32 5 -2 5 C-2.33 5.66 -2.66 6.32 -3 7 C-3.33 5.02 -3.66 3.04 -4 1 C-2.68 0.67 -1.36 0.34 0 0 Z " fill="#3C95C1" transform="translate(711,463)"/>
<path d="M0 0 C0.66 0.33 1.32 0.66 2 1 C0 4 0 4 -2.625 4.6875 C-3.800625 4.8421875 -3.800625 4.8421875 -5 5 C-5 5.66 -5 6.32 -5 7 C-5.66 6.67 -6.32 6.34 -7 6 C-2.25 1.125 -2.25 1.125 0 0 Z " fill="#29598B" transform="translate(730,444)"/>
<path d="M0 0 C-1.49097658 3.7952131 -3.75700849 5.61042731 -7 8 C-7 5 -7 5 -4.625 2.3125 C-2 0 -2 0 0 0 Z " fill="#41709C" transform="translate(837,431)"/>
<path d="M0 0 C4.75 0.75 4.75 0.75 7 3 C6.625 5.125 6.625 5.125 6 7 C4.62437146 5.71034824 3.29233607 4.37310707 2 3 C2 2.34 2 1.68 2 1 C1.34 0.67 0.68 0.34 0 0 Z " fill="#B5D6EB" transform="translate(623,424)"/>
<path d="M0 0 C1.4540625 0.0309375 1.4540625 0.0309375 2.9375 0.0625 C2.2775 1.3825 1.6175 2.7025 0.9375 4.0625 C-2.0625 3.0625 -2.0625 3.0625 -4.0625 1.0625 C-3.0625 0.0625 -3.0625 0.0625 0 0 Z " fill="#4D69BD" transform="translate(879.0625,407.9375)"/>
<path d="M0 0 C0.99 0.33 1.98 0.66 3 1 C2.34 3.31 1.68 5.62 1 8 C0.34 7.67 -0.32 7.34 -1 7 C-0.67 4.69 -0.34 2.38 0 0 Z " fill="#B4D2EC" transform="translate(609,386)"/>
<path d="M0 0 C2 1.375 2 1.375 4 3 C4 3.66 4 4.32 4 5 C4.66 5.33 5.32 5.66 6 6 C3 6 3 6 0.3125 3.5 C-0.450625 2.675 -1.21375 1.85 -2 1 C-1.34 0.67 -0.68 0.34 0 0 Z " fill="#A785C7" transform="translate(590,334)"/>
<path d="M0 0 C0.99 0 1.98 0 3 0 C3.33 1.32 3.66 2.64 4 4 C2.02 4 0.04 4 -2 4 C-1.34 2.68 -0.68 1.36 0 0 Z " fill="#A3C0E5" transform="translate(569,324)"/>
<path d="M0 0 C2.31 0 4.62 0 7 0 C7 0.66 7 1.32 7 2 C7.99 2.33 8.98 2.66 10 3 C4.58461538 3.36923077 4.58461538 3.36923077 1.625 1.5 C1.08875 1.005 0.5525 0.51 0 0 Z " fill="#A39AD3" transform="translate(787,316)"/>
<path d="M0 0 C0.33 0.99 0.66 1.98 1 3 C-0.32 3 -1.64 3 -3 3 C-3.33 3.66 -3.66 4.32 -4 5 C-5.32 4.34 -6.64 3.68 -8 3 C-2.25 0 -2.25 0 0 0 Z " fill="#9B6CB8" transform="translate(591,275)"/>
<path d="M0 0 C0.66 0 1.32 0 2 0 C2.625 2.875 2.625 2.875 3 6 C2.34 6.66 1.68 7.32 1 8 C-0.35439668 5.29120665 -0.06501451 2.99066732 0 0 Z " fill="#3F97CD" transform="translate(650,512)"/>
<path d="M0 0 C0.99 0 1.98 0 3 0 C3.33 1.65 3.66 3.3 4 5 C1.69 4.67 -0.62 4.34 -3 4 C-1.68 3.34 -0.36 2.68 1 2 C0.67 1.34 0.34 0.68 0 0 Z " fill="#266095" transform="translate(709,496)"/>
<path d="M0 0 C0.99 0.33 1.98 0.66 3 1 C0.525 4.465 0.525 4.465 -2 8 C-3 5 -3 5 -2 2 C-1.34 2 -0.68 2 0 2 C0 1.34 0 0.68 0 0 Z " fill="#53A0CA" transform="translate(702,478)"/>
<path d="M0 0 C0.66 0 1.32 0 2 0 C2.33 1.65 2.66 3.3 3 5 C1.35 5.66 -0.3 6.32 -2 7 C-1.34 4.69 -0.68 2.38 0 0 Z " fill="#366A9F" transform="translate(717,461)"/>
<path d="M0 0 C0.33 1.32 0.66 2.64 1 4 C0.34 4 -0.32 4 -1 4 C-1 6.31 -1 8.62 -1 11 C-1.33 11 -1.66 11 -2 11 C-2 7.7 -2 4.4 -2 1 C-1.34 0.67 -0.68 0.34 0 0 Z " fill="#5C72AE" transform="translate(789,386)"/>
<path d="M0 0 C1.32 0.33 2.64 0.66 4 1 C3.67 2.65 3.34 4.3 3 6 C1.5 4.6875 1.5 4.6875 0 3 C0 2.01 0 1.02 0 0 Z " fill="#566BAF" transform="translate(884,383)"/>
<path d="M0 0 C3.3 0.33 6.6 0.66 10 1 C10 1.66 10 2.32 10 3 C6.14354879 3.22036864 3.50776784 2.60355101 0 1 C0 0.67 0 0.34 0 0 Z " fill="#7582C6" transform="translate(804,326)"/>
<path d="M0 0 C0.66 0 1.32 0 2 0 C1.25 4.75 1.25 4.75 -1 7 C-1.99 6.67 -2.98 6.34 -4 6 C-3.34 6 -2.68 6 -2 6 C-1.34 4.02 -0.68 2.04 0 0 Z " fill="#A8A1D3" transform="translate(850,266)"/>
<path d="M0 0 C0.66 0.33 1.32 0.66 2 1 C-1.465 3.97 -1.465 3.97 -5 7 C-3.92643531 2.70574125 -3.4915227 2.25259529 0 0 Z " fill="#7B5AA0" transform="translate(742,249)"/>
<path d="M0 0 C1.7074998 1.28062485 3.37373596 2.61767557 5 4 C5 4.66 5 5.32 5 6 C4.34 6 3.68 6 3 6 C3 5.34 3 4.68 3 4 C1.68 4 0.36 4 -1 4 C-0.67 2.68 -0.34 1.36 0 0 Z " fill="#B1A8DD" transform="translate(791,223)"/>
<path d="M0 0 C3.26954202 0.56371414 4.82575883 1.49962266 7 4 C6.67 4.66 6.34 5.32 6 6 C4.68 5.34 3.36 4.68 2 4 C2 3.01 2 2.02 2 1 C1.34 0.67 0.68 0.34 0 0 Z " fill="#72459B" transform="translate(747,220)"/>
<path d="M0 0 C1.485 0.99 1.485 0.99 3 2 C2.67 3.65 2.34 5.3 2 7 C0.4375 5.75 0.4375 5.75 -1 4 C-0.6875 1.8125 -0.6875 1.8125 0 0 Z " fill="#8553AF" transform="translate(685,201)"/>
<path d="M0 0 C-0.33 0.99 -0.66 1.98 -1 3 C-1.66 3 -2.32 3 -3 3 C-3 3.66 -3 4.32 -3 5 C-3.99 4.67 -4.98 4.34 -6 4 C-5.67 3.01 -5.34 2.02 -5 1 C-3 0 -3 0 0 0 Z " fill="#9772B6" transform="translate(697,169)"/>
<path d="M0 0 C0.66 0 1.32 0 2 0 C1.67 0.99 1.34 1.98 1 3 C0.67 2.01 0.34 1.02 0 0 Z " fill="#FFFFFF" transform="translate(835,333)"/>
</svg>
